<svg width="20" height="20" viewBox="0 0 20 20" fill="none" xmlns="http://www.w3.org/2000/svg">
<path d="M9.37498 18.7499H1.25001V1.24996H9.37498C9.71999 1.24996 9.99996 0.969942 9.99996 0.624981C9.99996 0.280021 9.71994 0 9.37498 0H0.624981C0.280021 0 0 0.279969 0 0.624981V19.3749C0 19.7199 0.280021 19.9999 0.624981 19.9999H9.37493C9.71994 19.9999 9.99991 19.7199 9.99991 19.3749C9.99996 19.0299 9.71994 18.7499 9.37498 18.7499Z" fill="black"/>
<path d="M19.8187 9.56367L15.5062 5.18932C15.2619 4.94244 14.8662 4.94307 14.6225 5.18932C14.3781 5.43557 14.3781 5.83555 14.6225 6.0818L17.8725 9.37867H5.00193C4.65692 9.37867 4.37695 9.66118 4.37695 10.0099C4.37695 10.3587 4.65697 10.6412 5.00193 10.6412H17.8725L14.6225 13.9381C14.3781 14.1849 14.3781 14.5843 14.6225 14.8305C14.8669 15.0774 15.2625 15.0774 15.5062 14.8305L19.8181 10.4562C20.0594 10.2131 20.0619 9.80618 19.8187 9.56367Z" fill="black"/>
</svg>
