<svg width="222" height="104" viewBox="0 0 222 104" fill="none" xmlns="http://www.w3.org/2000/svg">
<path d="M11.055 48.8463V39.1161C14.0865 31.1462 24.7946 25.4255 27.3371 23.8608C29.8797 22.3451 38.3874 19.0202 38.2407 11.5882C38.2407 0 27.3371 0 22.5454 0C19.8073 0 0.835938 0 0.835938 0C3.96523 2.15139 5.82324 5.72073 5.82324 9.48566V50.9488C5.82324 53.7847 4.55197 56.5228 2.40058 58.3808H5.82324H11.1039H16.0912C12.913 56.2294 11.055 52.6601 11.055 48.8463ZM11.055 0.977903C13.6465 0.977903 17.4603 0.977903 21.4208 0.977903C29.244 0.977903 31.2976 8.65444 31.3465 9.53456C31.4443 11.4904 32.4711 18.4824 25.4302 23.5186C19.2205 27.968 12.8153 33.9821 11.055 35.7424V0.977903Z" fill="white"/>
<path d="M34.8666 27.2344C26.4566 27.2344 19.6113 34.2264 19.6113 42.8808C19.6113 51.5353 26.4078 58.5273 34.8666 58.5273C43.2766 58.5273 50.1219 51.5353 50.1219 42.8808C50.073 34.2264 43.2766 27.2344 34.8666 27.2344ZM34.8666 57.4027C30.026 57.4027 26.0655 50.8996 26.0655 42.8808C26.0655 34.862 29.9771 28.359 34.8666 28.359C39.7072 28.359 43.6677 34.862 43.6677 42.8808C43.6677 50.8507 39.7072 57.4027 34.8666 57.4027Z" fill="white"/>
<path d="M211.575 9.33891C214.166 9.33891 216.22 7.23642 216.22 4.69387C216.22 2.10242 214.117 0.0488281 211.575 0.0488281C208.983 0.0488281 206.93 2.15132 206.93 4.69387C206.93 7.23642 209.032 9.33891 211.575 9.33891ZM211.575 0.53778C213.824 0.53778 215.682 2.3958 215.682 4.64497C215.682 6.89415 213.824 8.75216 211.575 8.75216C209.326 8.75216 207.468 6.89415 207.468 4.64497C207.468 2.3958 209.326 0.53778 211.575 0.53778Z" fill="white"/>
<path d="M210.304 4.93832H211.086C211.233 4.93832 211.379 4.93832 211.428 4.93832C211.526 4.98722 211.624 4.98722 211.722 5.08501C211.819 5.1828 211.917 5.28059 212.064 5.42728C212.211 5.57396 212.357 5.81844 212.553 6.11181L213.188 7.13861H214.02L213.14 5.76954C212.944 5.52507 212.797 5.28059 212.602 5.1339C212.504 5.03611 212.357 4.98722 212.211 4.88943C212.7 4.84053 213.042 4.69385 213.286 4.44937C213.531 4.2049 213.629 3.91153 213.629 3.56926C213.629 3.27589 213.58 3.03141 213.433 2.83583C213.286 2.59136 213.091 2.44467 212.895 2.34688C212.651 2.24909 212.308 2.2002 211.868 2.2002H209.619V7.1875H210.255V4.93832H210.304ZM210.304 2.73804H211.868C212.259 2.73804 212.504 2.83583 212.7 2.98252C212.846 3.1292 212.944 3.32478 212.944 3.56926C212.944 3.71595 212.895 3.86263 212.797 4.00932C212.7 4.156 212.602 4.25379 212.406 4.30269C212.259 4.35158 212.015 4.40048 211.722 4.40048H210.304V2.73804Z" fill="white"/>
<path d="M176.321 50.4598V7.23648C176.321 4.44946 177.543 1.80912 179.695 0H170.404C173.485 2.15139 175.343 5.67184 175.343 9.38787V53.6869L146.25 0H138.769C141.459 2.20028 143.023 5.52515 143.023 9.0456V25.0343C140.53 23.2252 137.498 22.1495 134.222 22.1495C125.812 22.1495 118.967 29.1415 118.967 37.796C118.967 46.4504 125.763 53.4424 134.222 53.4424C137.498 53.4424 140.53 52.3667 143.023 50.5576V51.1932C143.023 54.0291 141.801 56.7184 139.649 58.5764H148.94C146.006 56.5228 144.246 53.2957 144.001 49.7753C147.326 46.8905 149.428 42.6366 149.428 37.796C149.428 33.0042 147.326 28.7015 144.001 25.8166V5.67184L171.529 56.5717C172.165 57.7452 173.387 58.4786 174.756 58.4786H177.837H180.379C177.837 56.6206 176.321 53.638 176.321 50.4598ZM134.271 52.0733C129.43 52.0733 125.47 45.5703 125.47 37.5515C125.47 29.5327 129.381 23.0296 134.271 23.0296C139.112 23.0296 143.072 29.5327 143.072 37.5515C143.072 45.5703 139.16 52.0733 134.271 52.0733Z" fill="white"/>
<path d="M207.81 58.4297L221.451 58.3808C218.224 56.1316 215.828 52.9046 214.606 49.1885L201.209 7.13869C200.378 4.59615 201.16 1.76023 203.213 0H193.337C194.119 2.24918 194.119 4.69393 193.386 6.94311L188.789 21.0249C186.1 17.8956 185.513 14.5219 185.465 12.126C181.553 12.126 179.744 17.0155 182.726 19.5581C184.535 21.1227 186.589 22.1984 188.105 22.9807L178.326 53.3935C178.13 53.9314 178.326 54.567 178.766 54.9093L178.864 54.9582L189.083 23.4697C189.278 23.5675 189.474 23.6653 189.621 23.763C192.163 25.3277 202.871 31.0484 205.903 39.0183L209.814 51.2421C210.646 53.8336 209.863 56.6695 207.81 58.4297ZM191.528 23.5186C190.794 22.9807 190.158 22.4429 189.572 21.905L194.95 5.23178L204.338 34.2266C201.6 31.6352 196.515 27.0879 191.528 23.5186Z" fill="white"/>
<path d="M80.828 0.977903H94.1763V0H45.3301V0.977903L49.3884 5.37847L50.8063 4.0583C52.9577 2.0536 55.7936 0.977903 58.7274 0.977903H75.6451V54.9093C75.6451 54.9093 75.694 54.9093 75.7429 54.9093C78.2854 54.8604 80.3879 53.0023 80.828 50.5576C80.828 50.4598 80.8769 50.362 80.8769 50.2642C80.8769 50.2153 80.8769 50.1664 80.8769 50.1175C80.8769 50.0197 80.8769 49.9219 80.8769 49.8242C80.8769 49.7753 80.8769 49.6775 80.8769 49.6286V0.977903H80.828Z" fill="white"/>
<path d="M134.27 57.843C134.27 57.843 128.354 62.8303 124.491 60.5811C120.677 58.3319 118.379 50.8021 109.773 28.8481C113.049 26.3545 116.179 24.5943 117.45 23.8608C119.993 22.3451 128.5 19.0202 128.354 11.5882C128.354 0 117.45 0 112.707 0H101.315H96.0339V0.977903V51.1932C96.0339 54.0291 94.8115 56.6695 92.6602 58.5275H105.813C102.977 56.7184 101.315 53.5891 101.315 50.2153V38.8228C102.146 36.7203 103.564 34.8133 105.128 33.0531C107.964 40.3385 114.712 58.5764 124.491 61.3145C131.092 63.3192 135.199 62.6347 137.79 61.07L134.27 57.843ZM101.315 35.6935V0.977903H111.583C119.406 0.977903 121.411 8.65444 121.508 9.53455C121.655 10.9525 122.633 18.4824 115.592 23.5186C109.529 27.9191 103.222 33.7866 101.315 35.6935Z" fill="white"/>
<path d="M85.473 53.1489L84.055 54.469C81.9036 56.4737 79.0677 57.5494 76.134 57.5494H59.6074V12.2236C59.6074 12.2236 59.5585 12.2236 59.5096 12.2236C56.9671 12.2725 54.8646 14.1305 54.4245 16.5753C54.4245 16.6731 54.3757 16.7709 54.3757 16.8687C54.3757 16.9176 54.3757 16.9665 54.3757 17.0154C54.3757 17.1131 54.3757 17.2109 54.3757 17.3087C54.3757 17.3576 54.3757 17.4554 54.3757 17.5043V51.1442C54.3757 53.9801 53.1533 56.7182 51.0508 58.5762H59.6563H89.5313V57.5983L85.473 53.1489Z" fill="white"/>
<path d="M55.5006 82.731C55.5006 83.7578 55.1583 84.589 54.4738 85.2246C53.7892 85.8603 52.8602 86.1536 51.6867 86.1536C51.54 86.1536 51.2467 86.1536 50.8066 86.1536C50.3666 86.1536 50.0243 86.1536 49.8776 86.1536C49.242 86.1536 48.6552 86.1536 48.0685 86.2025C48.0196 86.2025 47.9707 86.1536 47.9707 86.0558C47.9707 85.9581 48.0196 85.9092 48.0685 85.9092C48.3619 85.8603 48.5574 85.8114 48.7041 85.7625C48.8508 85.7136 48.9486 85.6158 48.9975 85.518C49.0464 85.4202 49.0953 85.2735 49.0953 85.029V80.3351C49.0953 80.0906 49.0464 79.9439 48.9975 79.8462C48.9486 79.7484 48.8508 79.6506 48.7041 79.6017C48.5574 79.5528 48.3619 79.5039 48.0685 79.455C48.0196 79.455 47.9707 79.4061 47.9707 79.3083C47.9707 79.2105 48.0196 79.1616 48.0685 79.1616C48.4597 79.2105 49.0464 79.2105 49.8776 79.2105C50.0243 79.2105 50.3177 79.2105 50.8066 79.2105C51.2467 79.2105 51.54 79.2105 51.6867 79.2105C52.8113 79.2105 53.7403 79.5528 54.4738 80.1884C55.1583 80.8241 55.5006 81.7042 55.5006 82.731ZM54.4249 82.731C54.4249 81.802 54.1804 81.0685 53.6425 80.4329C53.1047 79.8462 52.4691 79.5039 51.6867 79.5039H51.6378H50.7088C50.3177 79.5039 50.1221 79.6995 50.1221 80.0906V85.1757C50.1221 85.5669 50.3177 85.7625 50.7088 85.7625L51.6378 85.8114C52.4202 85.8114 53.0558 85.518 53.5936 84.9313C54.1315 84.3445 54.4249 83.6111 54.4249 82.731Z" fill="white"/>
<path d="M59.8033 86.0066C59.8033 86.1044 59.7544 86.1533 59.7055 86.1533C59.4611 86.1533 59.2166 86.1533 58.9232 86.1044C58.6298 86.1044 58.3854 86.0555 58.1898 86.0555C57.9942 86.0555 57.7497 86.0555 57.4564 86.1044C57.163 86.1044 56.8696 86.1533 56.6251 86.1533C56.5762 86.1533 56.5273 86.1044 56.5273 86.0066C56.5273 85.9088 56.5762 85.8599 56.6251 85.8599C57.0163 85.811 57.3097 85.7621 57.4564 85.6154C57.603 85.5176 57.6519 85.3221 57.6519 84.9798V80.237C57.6519 79.9925 57.603 79.8458 57.5541 79.748C57.5052 79.6502 57.4075 79.6013 57.2608 79.5035C57.1141 79.4546 56.9185 79.4057 56.6251 79.3569C56.5762 79.3569 56.5273 79.308 56.5273 79.2102C56.5273 79.1124 56.5762 79.0635 56.6251 79.0635C56.8696 79.0635 57.1141 79.0635 57.4564 79.1124C57.7497 79.1124 57.9942 79.1613 58.1898 79.1613C58.3854 79.1613 58.6298 79.1613 58.9232 79.1124C59.2166 79.1124 59.5099 79.0635 59.7055 79.0635C59.7544 79.0635 59.8033 79.1124 59.8033 79.2102C59.8033 79.308 59.7544 79.3569 59.7055 79.3569C59.4122 79.4057 59.2166 79.4546 59.0699 79.5035C58.9232 79.5524 58.8254 79.6502 58.7765 79.748C58.7276 79.8458 58.6787 79.9925 58.6787 80.237V84.9798C58.6787 85.2243 58.7276 85.371 58.7765 85.4687C58.8254 85.5665 58.9232 85.6154 59.0699 85.7132C59.2166 85.7621 59.4122 85.811 59.7055 85.8599C59.8033 85.9088 59.8033 85.9577 59.8033 86.0066Z" fill="white"/>
<path d="M65.1329 84.1486C65.1329 84.8331 64.9373 85.3221 64.5461 85.7132C64.155 86.1044 63.6171 86.3 62.9326 86.3C62.6392 86.3 62.2969 86.2511 61.8569 86.1533C61.4657 86.0555 61.1723 86.0066 60.9279 86.0066C60.9279 85.4198 60.879 84.882 60.8301 84.2953C60.8301 84.2464 60.879 84.1975 60.9768 84.1975C61.0257 84.1975 61.0746 84.2464 61.1235 84.2953C61.319 84.9309 61.5146 85.371 61.808 85.6154C62.1014 85.8599 62.4925 86.0066 62.9815 86.0066C63.3726 86.0066 63.7149 85.9088 63.9105 85.6643C64.1061 85.4198 64.2527 85.1265 64.2527 84.6864C64.2527 84.393 64.155 84.1486 63.9594 83.953C63.7638 83.7085 63.3726 83.4151 62.737 83.0729C62.0036 82.6328 61.5146 82.2906 61.319 81.9972C61.0746 81.7038 60.9768 81.3615 60.9768 81.0193C60.9768 80.4814 61.1723 79.9925 61.5635 79.6502C61.9547 79.2591 62.4925 79.0635 63.0793 79.0635C63.3237 79.0635 63.5682 79.1124 63.9105 79.1613C64.2038 79.2102 64.4483 79.2591 64.6439 79.2591C64.6928 79.8458 64.7417 80.3836 64.7906 80.8237C64.7906 80.8726 64.7417 80.9215 64.6439 80.9215C64.5461 80.9215 64.4972 80.8726 64.4972 80.8237C64.3994 80.3348 64.2038 79.9436 64.0083 79.748C63.8127 79.5524 63.4704 79.4057 63.0793 79.4057C62.6881 79.4057 62.3947 79.5035 62.1991 79.748C61.9547 79.9925 61.8569 80.2859 61.8569 80.6281C61.8569 80.8726 61.9547 81.0682 62.1502 81.3127C62.3458 81.5082 62.737 81.8016 63.3726 82.1928C64.1061 82.6328 64.595 82.9751 64.8395 83.2685C65.0351 83.464 65.1329 83.8063 65.1329 84.1486Z" fill="white"/>
<path d="M71.9284 84.4908C71.635 85.0776 71.4394 85.6154 71.2438 86.1533C69.9726 86.1044 69.0924 86.1044 68.5546 86.1044C68.0168 86.1044 67.1366 86.1044 65.8654 86.1533C65.8165 86.1533 65.7676 86.1044 65.7676 86.0066C65.7676 85.9088 65.8165 85.8599 65.8654 85.8599C66.1587 85.811 66.3543 85.7621 66.501 85.7132C66.6477 85.6643 66.7455 85.5665 66.7944 85.4687C66.8433 85.371 66.8922 85.2243 66.8922 84.9798V80.237C66.8922 79.9925 66.8433 79.8458 66.7944 79.748C66.7455 79.6502 66.6477 79.5524 66.501 79.5035C66.3543 79.4546 66.1587 79.4057 65.8654 79.3569C65.8165 79.3569 65.7676 79.308 65.7676 79.2102C65.7676 79.1124 65.8165 79.0635 65.8654 79.0635C66.6966 79.1124 67.5767 79.1124 68.4568 79.1124C69.3369 79.1124 70.217 79.1124 71.0483 79.0635C71.146 79.6013 71.2438 80.0903 71.3905 80.5792C71.3905 80.6281 71.3416 80.677 71.1949 80.677C71.146 80.677 71.0971 80.677 71.0971 80.6281C70.8527 79.8458 70.3148 79.4546 69.5325 79.4546H68.5057C68.1145 79.4546 67.919 79.6502 67.919 80.0414V82.2906H69.1902C69.5325 82.2906 69.777 82.1928 69.8748 82.0461C69.9726 81.8994 70.0703 81.606 70.1192 81.2149C70.1192 81.166 70.1681 81.1171 70.2659 81.1171C70.3637 81.1171 70.4126 81.166 70.4126 81.2149C70.4126 81.3616 70.4126 81.606 70.3637 81.8505C70.3637 82.095 70.3148 82.2906 70.3148 82.4372C70.3148 82.5839 70.3148 82.7795 70.3637 83.024C70.3637 83.2685 70.4126 83.5129 70.4126 83.6596C70.4126 83.7085 70.3637 83.7574 70.2659 83.7574C70.1681 83.7574 70.1192 83.7085 70.1192 83.6596C70.0703 83.2685 69.9726 82.9751 69.8748 82.7795C69.7281 82.6328 69.5325 82.535 69.1902 82.535H67.919V85.0287C67.919 85.4198 68.1145 85.6154 68.5057 85.6154H69.5814C69.9726 85.6154 70.3637 85.4687 70.7549 85.2243C71.146 84.9798 71.4394 84.6375 71.635 84.2464C71.635 84.1975 71.6839 84.1975 71.7328 84.1975C71.7817 84.1975 71.8306 84.1975 71.8795 84.2464C71.8795 84.4419 71.9284 84.4908 71.9284 84.4908Z" fill="white"/>
<path d="M80.6327 79.3081C80.6327 79.4059 80.5838 79.4548 80.5349 79.4548C80.0948 79.5037 79.8504 79.6015 79.6548 79.6993C79.4592 79.7971 79.4103 79.9926 79.4103 80.3349L79.3125 86.2512C79.3125 86.3001 79.2636 86.349 79.2147 86.349C79.1658 86.349 79.1169 86.3001 79.068 86.2512L73.8852 80.3838L73.8363 85.0288C73.8363 85.0777 73.8363 85.0777 73.8363 85.1266C73.8363 85.3711 73.9341 85.5667 74.0807 85.6645C74.2274 85.7623 74.5208 85.8601 74.9609 85.9089C75.0098 85.9089 75.0586 85.9578 75.0586 86.0556C75.0586 86.1534 75.0098 86.2023 74.9609 86.2023C74.7653 86.2023 74.5697 86.2023 74.2274 86.1534C73.9341 86.1534 73.7385 86.1045 73.5918 86.1045C73.4451 86.1045 73.2006 86.1045 72.9073 86.1534C72.6139 86.1534 72.4183 86.2023 72.2716 86.2023C72.2227 86.2023 72.1738 86.1534 72.1738 86.0556C72.1738 85.9578 72.2227 85.9089 72.2716 85.9089C72.6628 85.8601 72.9562 85.7623 73.1028 85.6645C73.2495 85.5667 73.3473 85.3711 73.3473 85.0288L73.5429 80.286V80.2371C73.5429 79.9437 73.4451 79.7971 73.2984 79.6504C73.1517 79.5037 72.8584 79.4548 72.4183 79.4059C72.3694 79.4059 72.3694 79.357 72.3694 79.2592C72.3694 79.1614 72.4183 79.1125 72.4672 79.1125C72.565 79.1125 72.7606 79.1125 72.9562 79.1614C73.1517 79.1614 73.2984 79.2103 73.3962 79.2103C73.494 79.2103 73.6407 79.2103 73.8363 79.1614C73.983 79.1614 74.1296 79.1125 74.2763 79.1125L79.1169 84.5399V80.2371C79.1169 79.9437 79.0192 79.7482 78.8725 79.6504C78.7258 79.5526 78.4324 79.4548 77.9924 79.4059C77.9435 79.4059 77.8946 79.357 77.8946 79.2592C77.8946 79.1614 77.9435 79.1125 77.9924 79.1125C78.1879 79.1125 78.4324 79.1125 78.7258 79.1614C79.0192 79.1614 79.2147 79.2103 79.3614 79.2103C79.5081 79.2103 79.7526 79.2103 80.046 79.1614C80.3393 79.1614 80.5349 79.1125 80.6816 79.1125C80.6327 79.1614 80.6327 79.2103 80.6327 79.3081ZM77.0633 78.0368H75.9388C75.6943 78.0368 75.4987 78.0857 75.4009 78.1346C75.3031 78.1835 75.1564 78.3302 75.0586 78.5258C75.0586 78.5747 75.0098 78.5747 74.9609 78.5747C74.8631 78.5747 74.8142 78.5258 74.8142 78.4769C74.8142 78.428 74.8631 78.2813 74.9609 77.9879C75.0586 77.7435 75.2053 77.5479 75.352 77.4012C75.4987 77.3034 75.6454 77.2545 75.841 77.2545H76.9656C77.2589 77.2545 77.5034 77.2056 77.5523 77.1567C77.6501 77.1078 77.7479 77.01 77.7968 76.8633C77.7968 76.8144 77.8457 76.8145 77.8946 76.8145C77.9924 76.8145 78.0412 76.8633 78.0412 76.9122C78.0412 76.9611 77.9924 77.1078 77.8946 77.3523C77.7968 77.5479 77.6501 77.7435 77.5523 77.8412C77.4545 77.9879 77.2589 78.0368 77.0633 78.0368Z" fill="white"/>
<path d="M88.5043 82.7306C88.5043 83.8063 88.1621 84.6375 87.4775 85.3221C86.793 86.0066 85.9129 86.3489 84.7883 86.3489C83.6637 86.3489 82.7836 86.0066 82.0991 85.3221C81.4145 84.6375 81.0723 83.7574 81.0723 82.7306C81.0723 81.6549 81.4145 80.7748 82.0991 80.0903C82.7836 79.4057 83.6637 79.0635 84.7883 79.0635C85.864 79.0635 86.793 79.4057 87.4775 80.0903C88.1621 80.7748 88.5043 81.6549 88.5043 82.7306ZM87.4286 82.7306C87.4286 81.7527 87.1842 80.9215 86.6952 80.3348C86.2063 79.6991 85.5706 79.4057 84.8372 79.4057C84.0549 79.4057 83.4192 79.6991 82.9792 80.3348C82.4902 80.9704 82.2457 81.7527 82.2457 82.7306C82.2457 83.7085 82.4902 84.4908 82.9303 85.1265C83.4192 85.7132 84.006 86.0555 84.8372 86.0555C85.6195 86.0555 86.2551 85.7621 86.7441 85.1265C87.1842 84.4908 87.4286 83.7085 87.4286 82.7306Z" fill="white"/>
<path d="M99.3111 82.731C99.3111 83.7578 98.9688 84.589 98.2843 85.2246C97.5998 85.8603 96.6708 86.1536 95.4973 86.1536C95.3506 86.1536 95.0572 86.1536 94.6172 86.1536C94.1771 86.1536 93.8348 86.1536 93.6882 86.1536C93.0525 86.1536 92.4658 86.1536 91.879 86.2025C91.8301 86.2025 91.7812 86.1536 91.7812 86.0558C91.7812 85.9581 91.8301 85.9092 91.879 85.9092C92.1724 85.8603 92.368 85.8114 92.5147 85.7625C92.6614 85.7136 92.7592 85.6158 92.8081 85.518C92.8569 85.4202 92.9058 85.2735 92.9058 85.029V80.3351C92.9058 80.0906 92.8569 79.9439 92.8081 79.8462C92.7592 79.7484 92.6614 79.6506 92.5147 79.6017C92.368 79.5528 92.1724 79.5039 91.879 79.455C91.8301 79.455 91.7812 79.4061 91.7812 79.3083C91.7812 79.2105 91.8301 79.1616 91.879 79.1616C92.2702 79.2105 92.8569 79.2105 93.6882 79.2105C93.8348 79.2105 94.1282 79.2105 94.6172 79.2105C95.0572 79.2105 95.3506 79.2105 95.4973 79.2105C96.6219 79.2105 97.5509 79.5528 98.2843 80.1884C98.9688 80.8241 99.3111 81.7042 99.3111 82.731ZM98.1865 82.731C98.1865 81.802 97.942 81.0685 97.4042 80.4329C96.8663 79.8462 96.2307 79.5039 95.4484 79.5039H95.3995H94.4705C94.0793 79.5039 93.8837 79.6995 93.8837 80.0906V85.1757C93.8837 85.5669 94.0793 85.7625 94.4705 85.7625L95.3995 85.8114C96.1818 85.8114 96.8174 85.518 97.3553 84.9313C97.942 84.3445 98.1865 83.6111 98.1865 82.731Z" fill="white"/>
<path d="M106.206 84.4908C105.912 85.0776 105.717 85.6154 105.521 86.1533C104.25 86.1044 103.37 86.1044 102.832 86.1044C102.294 86.1044 101.414 86.1044 100.143 86.1533C100.094 86.1533 100.045 86.1044 100.045 86.0066C100.045 85.9088 100.094 85.8599 100.143 85.8599C100.436 85.811 100.632 85.7621 100.778 85.7132C100.925 85.6643 101.023 85.5665 101.072 85.4687C101.121 85.371 101.17 85.2243 101.17 84.9798V80.237C101.17 79.9925 101.121 79.8458 101.072 79.748C101.023 79.6502 100.925 79.5524 100.778 79.5035C100.632 79.4546 100.436 79.4057 100.143 79.3569C100.094 79.3569 100.045 79.308 100.045 79.2102C100.045 79.1124 100.094 79.0635 100.143 79.0635C100.974 79.1124 101.854 79.1124 102.734 79.1124C103.614 79.1124 104.494 79.1124 105.326 79.0635C105.423 79.6013 105.521 80.0903 105.668 80.5792C105.668 80.6281 105.619 80.677 105.472 80.677C105.423 80.677 105.374 80.677 105.374 80.6281C105.13 79.8458 104.592 79.4546 103.81 79.4546H102.783C102.392 79.4546 102.196 79.6502 102.196 80.0414V82.2906H103.468C103.81 82.2906 104.054 82.1928 104.152 82.0461C104.25 81.8994 104.348 81.606 104.397 81.2149C104.397 81.166 104.445 81.1171 104.543 81.1171C104.641 81.1171 104.69 81.166 104.69 81.2149C104.69 81.3616 104.69 81.606 104.641 81.8505C104.641 82.095 104.592 82.2906 104.592 82.4372C104.592 82.5839 104.592 82.7795 104.641 83.024C104.641 83.2685 104.69 83.5129 104.69 83.6596C104.69 83.7085 104.641 83.7574 104.543 83.7574C104.445 83.7574 104.397 83.7085 104.397 83.6596C104.348 83.2685 104.25 82.9751 104.152 82.7795C104.005 82.6328 103.81 82.535 103.468 82.535H102.196V85.0287C102.196 85.4198 102.392 85.6154 102.783 85.6154H103.859C104.25 85.6154 104.641 85.4687 105.032 85.2243C105.423 84.9798 105.717 84.6375 105.912 84.2464C105.912 84.1975 105.961 84.1975 106.01 84.1975C106.059 84.1975 106.108 84.1975 106.157 84.2464C106.157 84.4419 106.206 84.4908 106.206 84.4908Z" fill="white"/>
<path d="M112.659 86.0066C112.659 86.1044 112.61 86.1533 112.561 86.1533C112.317 86.1533 112.072 86.1533 111.779 86.1044C111.485 86.1044 111.241 86.0555 111.045 86.0555C110.85 86.0555 110.605 86.0555 110.312 86.1044C110.018 86.1044 109.725 86.1533 109.481 86.1533C109.432 86.1533 109.383 86.1044 109.383 86.0066C109.383 85.9088 109.432 85.8599 109.481 85.8599C109.872 85.811 110.165 85.7621 110.312 85.6154C110.459 85.5176 110.507 85.3221 110.507 84.9798V80.237C110.507 79.9925 110.459 79.8458 110.41 79.748C110.361 79.6502 110.263 79.6013 110.116 79.5035C109.97 79.4546 109.774 79.4057 109.481 79.3569C109.432 79.3569 109.383 79.308 109.383 79.2102C109.383 79.1124 109.432 79.0635 109.481 79.0635C109.725 79.0635 109.97 79.0635 110.312 79.1124C110.605 79.1124 110.85 79.1613 111.045 79.1613C111.241 79.1613 111.485 79.1613 111.779 79.1124C112.072 79.1124 112.365 79.0635 112.561 79.0635C112.61 79.0635 112.659 79.1124 112.659 79.2102C112.659 79.308 112.61 79.3569 112.561 79.3569C112.268 79.4057 112.072 79.4546 111.925 79.5035C111.779 79.5524 111.681 79.6502 111.632 79.748C111.583 79.8458 111.534 79.9925 111.534 80.237V84.9798C111.534 85.2243 111.583 85.371 111.632 85.4687C111.681 85.5665 111.779 85.6154 111.925 85.7132C112.072 85.7621 112.268 85.811 112.561 85.8599C112.61 85.9088 112.659 85.9577 112.659 86.0066Z" fill="white"/>
<path d="M121.851 79.3079C121.851 79.4057 121.803 79.4546 121.754 79.4546C121.314 79.5035 121.069 79.6013 120.874 79.699C120.678 79.7968 120.629 79.9924 120.629 80.3347L120.531 86.251C120.531 86.2999 120.482 86.3488 120.433 86.3488C120.385 86.3488 120.336 86.2999 120.287 86.251L115.104 80.3836L115.055 85.0286C115.055 85.0775 115.055 85.0775 115.055 85.1264C115.055 85.3709 115.153 85.5665 115.299 85.6643C115.446 85.762 115.74 85.8598 116.18 85.9087C116.228 85.9087 116.277 85.9576 116.277 86.0554C116.277 86.1532 116.228 86.2021 116.18 86.2021C115.984 86.2021 115.788 86.2021 115.446 86.1532C115.153 86.1532 114.957 86.1043 114.811 86.1043C114.664 86.1043 114.419 86.1043 114.126 86.1532C113.833 86.1532 113.637 86.2021 113.49 86.2021C113.441 86.2021 113.393 86.1532 113.393 86.0554C113.393 85.9576 113.441 85.9087 113.49 85.9087C113.882 85.8598 114.175 85.762 114.322 85.6643C114.468 85.5665 114.566 85.3709 114.566 85.0286L114.762 80.2858V80.2369C114.762 79.9435 114.664 79.7968 114.517 79.6501C114.37 79.5035 114.077 79.4546 113.637 79.4057C113.588 79.4057 113.588 79.3568 113.588 79.259C113.588 79.1612 113.637 79.1123 113.686 79.1123C113.784 79.1123 113.979 79.1123 114.175 79.1612C114.37 79.1612 114.517 79.2101 114.615 79.2101C114.713 79.2101 114.859 79.2101 115.055 79.1612C115.202 79.1612 115.348 79.1123 115.495 79.1123L120.336 84.5397V80.2369C120.336 79.9435 120.238 79.7479 120.091 79.6501C119.945 79.5524 119.651 79.4546 119.211 79.4057C119.162 79.4057 119.113 79.3568 119.113 79.259C119.113 79.1612 119.162 79.1123 119.211 79.1123C119.407 79.1123 119.651 79.1123 119.945 79.1612C120.238 79.1612 120.433 79.2101 120.58 79.2101C120.727 79.2101 120.971 79.2101 121.265 79.1612C121.558 79.1612 121.754 79.1123 121.9 79.1123C121.851 79.1612 121.851 79.2101 121.851 79.3079Z" fill="white"/>
<path d="M129.039 80.8241C129.039 80.873 128.99 80.9218 128.843 80.9218C128.795 80.9218 128.746 80.9218 128.746 80.873C128.599 80.384 128.403 80.0906 128.11 79.895C127.866 79.6995 127.425 79.6017 126.937 79.6017H126.448C126.301 79.6017 126.154 79.6506 126.105 79.6995C126.056 79.7484 126.008 79.8462 126.008 79.9928V85.0779C126.008 85.3224 126.056 85.4691 126.105 85.5669C126.154 85.6647 126.252 85.7136 126.399 85.8114C126.545 85.8603 126.741 85.9092 127.034 85.9581C127.083 85.9581 127.132 86.0069 127.132 86.1047C127.132 86.2025 127.083 86.2514 127.034 86.2514C126.79 86.2514 126.545 86.2514 126.252 86.2025C125.959 86.2025 125.714 86.1536 125.519 86.1536C125.323 86.1536 125.079 86.1536 124.785 86.2025C124.492 86.2025 124.198 86.2514 124.003 86.2514C123.954 86.2514 123.905 86.2025 123.905 86.1047C123.905 86.0069 123.954 85.9581 124.003 85.9581C124.394 85.9092 124.687 85.8603 124.834 85.7136C124.981 85.6158 125.03 85.4202 125.03 85.0779V79.9928C125.03 79.8462 124.981 79.7484 124.932 79.6995C124.883 79.6506 124.736 79.6017 124.59 79.6017H124.198C123.709 79.6017 123.318 79.6995 122.927 79.9439C122.536 80.1884 122.291 80.4818 122.194 80.873C122.194 80.9218 122.145 80.9707 122.096 80.9707C121.998 80.9707 121.949 80.9218 121.949 80.873C122.145 80.384 122.291 79.7973 122.487 79.1616C122.927 79.2594 124.003 79.3083 125.616 79.3083C127.279 79.3083 128.354 79.2594 128.795 79.1616C128.746 79.5528 128.843 80.0906 129.039 80.8241Z" fill="white"/>
<path d="M135.444 84.4908C135.151 85.0776 134.955 85.6154 134.759 86.1533C133.488 86.1044 132.608 86.1044 132.07 86.1044C131.532 86.1044 130.652 86.1044 129.381 86.1533C129.332 86.1533 129.283 86.1044 129.283 86.0066C129.283 85.9088 129.332 85.8599 129.381 85.8599C129.674 85.811 129.87 85.7621 130.017 85.7132C130.163 85.6643 130.261 85.5665 130.31 85.4687C130.359 85.371 130.408 85.2243 130.408 84.9798V80.237C130.408 79.9925 130.359 79.8458 130.31 79.748C130.261 79.6502 130.163 79.5524 130.017 79.5035C129.87 79.4546 129.674 79.4057 129.381 79.3569C129.332 79.3569 129.283 79.308 129.283 79.2102C129.283 79.1124 129.332 79.0635 129.381 79.0635C130.212 79.1124 131.092 79.1124 131.972 79.1124C132.853 79.1124 133.733 79.1124 134.564 79.0635C134.662 79.6013 134.759 80.0903 134.906 80.5792C134.906 80.6281 134.857 80.677 134.711 80.677C134.662 80.677 134.613 80.677 134.613 80.6281C134.368 79.8458 133.83 79.4546 133.048 79.4546H132.021C131.63 79.4546 131.435 79.6502 131.435 80.0414V82.2906H132.706C133.048 82.2906 133.293 82.1928 133.39 82.0461C133.488 81.8994 133.586 81.606 133.635 81.2149C133.635 81.166 133.684 81.1171 133.782 81.1171C133.879 81.1171 133.928 81.166 133.928 81.2149C133.928 81.3616 133.928 81.606 133.879 81.8505C133.879 82.095 133.83 82.2906 133.83 82.4372C133.83 82.5839 133.83 82.7795 133.879 83.024C133.879 83.2685 133.928 83.5129 133.928 83.6596C133.928 83.7085 133.879 83.7574 133.782 83.7574C133.684 83.7574 133.635 83.7085 133.635 83.6596C133.586 83.2685 133.488 82.9751 133.39 82.7795C133.244 82.6328 133.048 82.535 132.706 82.535H131.435V85.0287C131.435 85.4198 131.63 85.6154 132.021 85.6154H133.097C133.488 85.6154 133.879 85.4687 134.27 85.2243C134.662 84.9798 134.955 84.6375 135.151 84.2464C135.151 84.1975 135.2 84.1975 135.248 84.1975C135.297 84.1975 135.346 84.1975 135.395 84.2464C135.395 84.4419 135.444 84.4908 135.444 84.4908Z" fill="white"/>
<path d="M142.828 86.0066C142.828 86.1044 142.779 86.1533 142.73 86.1533C142.583 86.1533 142.388 86.1533 142.143 86.1044C141.948 86.1044 141.801 86.0555 141.752 86.0555C141.654 86.0555 141.508 86.0555 141.312 86.1044C141.116 86.1044 140.97 86.1533 140.872 86.1533L139.356 83.6596C139.161 83.3174 138.965 83.0729 138.818 82.9751C138.672 82.8773 138.427 82.8284 138.036 82.8284V84.9798C138.036 85.2243 138.085 85.371 138.134 85.4687C138.183 85.5665 138.281 85.6154 138.427 85.7132C138.574 85.7621 138.77 85.811 139.063 85.8599C139.112 85.8599 139.161 85.9088 139.161 86.0066C139.161 86.1044 139.112 86.1533 139.063 86.1533C138.818 86.1533 138.574 86.1533 138.281 86.1044C137.987 86.1044 137.743 86.0555 137.547 86.0555C137.352 86.0555 137.107 86.0555 136.814 86.1044C136.52 86.1044 136.227 86.1533 136.031 86.1533C135.982 86.1533 135.934 86.1044 135.934 86.0066C135.934 85.9088 135.982 85.8599 136.031 85.8599C136.325 85.811 136.52 85.7621 136.667 85.7132C136.814 85.6643 136.911 85.5665 136.96 85.4687C137.009 85.371 137.058 85.2243 137.058 84.9798V80.237C137.058 79.9925 137.009 79.8458 136.96 79.748C136.911 79.6502 136.814 79.5524 136.667 79.5035C136.52 79.4546 136.325 79.4057 136.031 79.3569C135.982 79.3569 135.934 79.308 135.934 79.2102C135.934 79.1124 135.982 79.0635 136.031 79.0635C136.276 79.0635 136.52 79.0635 136.814 79.1124C137.107 79.1124 137.352 79.1613 137.547 79.1613C137.743 79.1613 137.987 79.1613 138.281 79.1124C138.574 79.1124 138.867 79.0635 139.063 79.0635C139.796 79.0635 140.383 79.2102 140.774 79.5524C141.165 79.8458 141.41 80.2859 141.41 80.8726C141.41 81.2149 141.263 81.5571 141.019 81.8505C140.725 82.1439 140.383 82.3884 139.943 82.535L141.508 85.0287C141.654 85.2243 141.801 85.4198 142.045 85.5176C142.29 85.6154 142.534 85.7132 142.877 85.7132C142.779 85.9088 142.828 85.9577 142.828 86.0066ZM140.285 80.9704C140.285 79.9925 139.845 79.5035 139.014 79.5035C138.721 79.5035 138.525 79.5035 138.378 79.5524C138.232 79.6013 138.134 79.6502 138.085 79.748C138.036 79.8458 138.036 79.9925 138.036 80.2859V82.535C138.232 82.5839 138.476 82.5839 138.77 82.5839C139.307 82.5839 139.699 82.4372 139.943 82.1928C140.139 81.9483 140.285 81.5571 140.285 80.9704Z" fill="white"/>
<path d="M146.739 86.0066C146.739 86.1044 146.69 86.1533 146.641 86.1533C146.397 86.1533 146.152 86.1533 145.859 86.1044C145.565 86.1044 145.321 86.0555 145.125 86.0555C144.93 86.0555 144.685 86.0555 144.392 86.1044C144.099 86.1044 143.805 86.1533 143.561 86.1533C143.512 86.1533 143.463 86.1044 143.463 86.0066C143.463 85.9088 143.512 85.8599 143.561 85.8599C143.952 85.811 144.245 85.7621 144.392 85.6154C144.539 85.5176 144.587 85.3221 144.587 84.9798V80.237C144.587 79.9925 144.539 79.8458 144.49 79.748C144.441 79.6502 144.343 79.6013 144.196 79.5035C144.05 79.4546 143.854 79.4057 143.561 79.3569C143.512 79.3569 143.463 79.308 143.463 79.2102C143.463 79.1124 143.512 79.0635 143.561 79.0635C143.805 79.0635 144.05 79.0635 144.392 79.1124C144.685 79.1124 144.93 79.1613 145.125 79.1613C145.321 79.1613 145.565 79.1613 145.859 79.1124C146.152 79.1124 146.445 79.0635 146.641 79.0635C146.69 79.0635 146.739 79.1124 146.739 79.2102C146.739 79.308 146.69 79.3569 146.641 79.3569C146.348 79.4057 146.152 79.4546 146.005 79.5035C145.859 79.5524 145.761 79.6502 145.712 79.748C145.663 79.8458 145.614 79.9925 145.614 80.237V84.9798C145.614 85.2243 145.663 85.371 145.712 85.4687C145.761 85.5665 145.859 85.6154 146.005 85.7132C146.152 85.7621 146.348 85.811 146.641 85.8599C146.739 85.9088 146.739 85.9577 146.739 86.0066Z" fill="white"/>
<path d="M155.198 82.7306C155.198 83.8063 154.855 84.6375 154.171 85.3221C153.486 86.0066 152.606 86.3489 151.482 86.3489C150.357 86.3489 149.477 86.0066 148.792 85.3221C148.108 84.6375 147.766 83.7574 147.766 82.7306C147.766 81.6549 148.108 80.7748 148.792 80.0903C149.477 79.4057 150.357 79.0635 151.482 79.0635C152.557 79.0635 153.486 79.4057 154.171 80.0903C154.855 80.7748 155.198 81.6549 155.198 82.7306ZM154.073 82.7306C154.073 81.7527 153.829 80.9215 153.34 80.3348C152.851 79.6991 152.215 79.4057 151.482 79.4057C150.699 79.4057 150.064 79.6991 149.624 80.3348C149.135 80.9704 148.89 81.7527 148.89 82.7306C148.89 83.7085 149.135 84.4908 149.575 85.1265C150.064 85.7132 150.65 86.0555 151.482 86.0555C152.264 86.0555 152.9 85.7621 153.389 85.1265C153.829 84.4908 154.073 83.7085 154.073 82.7306Z" fill="white"/>
<path d="M162.924 86.0066C162.924 86.1044 162.875 86.1533 162.826 86.1533C162.679 86.1533 162.483 86.1533 162.239 86.1044C162.043 86.1044 161.897 86.0555 161.848 86.0555C161.75 86.0555 161.603 86.0555 161.408 86.1044C161.212 86.1044 161.066 86.1533 160.968 86.1533L159.452 83.6596C159.256 83.3174 159.061 83.0729 158.914 82.9751C158.767 82.8773 158.523 82.8284 158.132 82.8284V84.9798C158.132 85.2243 158.181 85.371 158.23 85.4687C158.278 85.5665 158.376 85.6154 158.523 85.7132C158.67 85.7621 158.865 85.811 159.159 85.8599C159.207 85.8599 159.256 85.9088 159.256 86.0066C159.256 86.1044 159.207 86.1533 159.159 86.1533C158.914 86.1533 158.67 86.1533 158.376 86.1044C158.083 86.1044 157.838 86.0555 157.643 86.0555C157.447 86.0555 157.203 86.0555 156.909 86.1044C156.616 86.1044 156.323 86.1533 156.127 86.1533C156.078 86.1533 156.029 86.1044 156.029 86.0066C156.029 85.9088 156.078 85.8599 156.127 85.8599C156.42 85.811 156.616 85.7621 156.763 85.7132C156.909 85.6643 157.007 85.5665 157.056 85.4687C157.105 85.371 157.154 85.2243 157.154 84.9798V80.237C157.154 79.9925 157.105 79.8458 157.056 79.748C157.007 79.6502 156.909 79.5524 156.763 79.5035C156.616 79.4546 156.42 79.4057 156.127 79.3569C156.078 79.3569 156.029 79.308 156.029 79.2102C156.029 79.1124 156.078 79.0635 156.127 79.0635C156.372 79.0635 156.616 79.0635 156.909 79.1124C157.203 79.1124 157.447 79.1613 157.643 79.1613C157.838 79.1613 158.083 79.1613 158.376 79.1124C158.67 79.1124 158.963 79.0635 159.159 79.0635C159.892 79.0635 160.479 79.2102 160.87 79.5524C161.261 79.8458 161.506 80.2859 161.506 80.8726C161.506 81.2149 161.359 81.5571 161.114 81.8505C160.821 82.1439 160.479 82.3884 160.039 82.535L161.603 85.0287C161.75 85.2243 161.897 85.4198 162.141 85.5176C162.386 85.6154 162.63 85.7132 162.972 85.7132C162.875 85.9088 162.924 85.9577 162.924 86.0066ZM160.332 80.9704C160.332 79.9925 159.892 79.5035 159.061 79.5035C158.767 79.5035 158.572 79.5035 158.425 79.5524C158.278 79.6013 158.181 79.6502 158.132 79.748C158.083 79.8458 158.083 79.9925 158.083 80.2859V82.535C158.278 82.5839 158.523 82.5839 158.816 82.5839C159.354 82.5839 159.745 82.4372 159.99 82.1928C160.234 81.9483 160.332 81.5571 160.332 80.9704Z" fill="white"/>
<path d="M169.426 84.4908C169.133 85.0776 168.937 85.6154 168.742 86.1533C167.471 86.1044 166.59 86.1044 166.053 86.1044C165.515 86.1044 164.635 86.1044 163.363 86.1533C163.315 86.1533 163.266 86.1044 163.266 86.0066C163.266 85.9088 163.315 85.8599 163.363 85.8599C163.657 85.811 163.852 85.7621 163.999 85.7132C164.146 85.6643 164.244 85.5665 164.292 85.4687C164.341 85.371 164.39 85.2243 164.39 84.9798V80.237C164.39 79.9925 164.341 79.8458 164.292 79.748C164.244 79.6502 164.146 79.5524 163.999 79.5035C163.852 79.4546 163.657 79.4057 163.363 79.3569C163.315 79.3569 163.266 79.308 163.266 79.2102C163.266 79.1124 163.315 79.0635 163.363 79.0635C164.195 79.1124 165.075 79.1124 165.955 79.1124C166.835 79.1124 167.715 79.1124 168.546 79.0635C168.644 79.6013 168.742 80.0903 168.889 80.5792C168.889 80.6281 168.84 80.677 168.693 80.677C168.644 80.677 168.595 80.677 168.595 80.6281C168.351 79.8458 167.813 79.4546 167.031 79.4546H166.004C165.613 79.4546 165.417 79.6502 165.417 80.0414V82.2906H166.688C167.031 82.2906 167.275 82.1928 167.373 82.0461C167.471 81.8994 167.568 81.606 167.617 81.2149C167.617 81.166 167.666 81.1171 167.764 81.1171C167.862 81.1171 167.911 81.166 167.911 81.2149C167.911 81.3616 167.911 81.606 167.862 81.8505C167.862 82.095 167.813 82.2906 167.813 82.4372C167.813 82.5839 167.813 82.7795 167.862 83.024C167.862 83.2685 167.911 83.5129 167.911 83.6596C167.911 83.7085 167.862 83.7574 167.764 83.7574C167.666 83.7574 167.617 83.7085 167.617 83.6596C167.568 83.2685 167.471 82.9751 167.373 82.7795C167.226 82.6328 167.031 82.535 166.688 82.535H165.417V85.0287C165.417 85.4198 165.613 85.6154 166.004 85.6154H167.079C167.471 85.6154 167.862 85.4687 168.253 85.2243C168.644 84.9798 168.937 84.6375 169.133 84.2464C169.133 84.1975 169.182 84.1975 169.231 84.1975C169.28 84.1975 169.329 84.1975 169.378 84.2464C169.378 84.4419 169.426 84.4908 169.426 84.4908Z" fill="white"/>
<path d="M174.266 84.1486C174.266 84.8331 174.07 85.3221 173.679 85.7132C173.288 86.1044 172.75 86.3 172.065 86.3C171.772 86.3 171.43 86.2511 170.99 86.1533C170.599 86.0555 170.305 86.0066 170.061 86.0066C170.061 85.4198 170.012 84.882 169.963 84.2953C169.963 84.2464 170.012 84.1975 170.11 84.1975C170.158 84.1975 170.207 84.2464 170.256 84.2953C170.452 84.9309 170.647 85.371 170.941 85.6154C171.234 85.8599 171.625 86.0066 172.114 86.0066C172.505 86.0066 172.848 85.9088 173.043 85.6643C173.239 85.4198 173.386 85.1265 173.386 84.6864C173.386 84.393 173.288 84.1486 173.092 83.953C172.897 83.7085 172.505 83.4151 171.87 83.0729C171.136 82.6328 170.647 82.2906 170.452 81.9972C170.207 81.7038 170.11 81.3615 170.11 81.0193C170.11 80.4814 170.305 79.9925 170.696 79.6502C171.087 79.2591 171.625 79.0635 172.212 79.0635C172.457 79.0635 172.701 79.1124 173.043 79.1613C173.337 79.2102 173.581 79.2591 173.777 79.2591C173.826 79.8458 173.875 80.3836 173.923 80.8237C173.923 80.8726 173.875 80.9215 173.777 80.9215C173.679 80.9215 173.63 80.8726 173.63 80.8237C173.532 80.3348 173.337 79.9436 173.141 79.748C172.945 79.5524 172.603 79.4057 172.212 79.4057C171.821 79.4057 171.528 79.5035 171.332 79.748C171.087 79.9925 170.99 80.2859 170.99 80.6281C170.99 80.8726 171.087 81.0682 171.283 81.3127C171.479 81.5082 171.87 81.8016 172.505 82.1928C173.239 82.6328 173.728 82.9751 173.972 83.2685C174.119 83.464 174.266 83.8063 174.266 84.1486Z" fill="white"/>
<path d="M104.641 101.8H91.4395V104H104.641V101.8Z" fill="#647D6F"/>
<path d="M130.848 101.8H117.646V104H130.848V101.8Z" fill="#A8555E"/>
<path d="M117.696 101.8H104.494V104H117.696V101.8Z" fill="#F4F4F4"/>
</svg>
