<svg width="224" height="38" viewBox="0 0 224 38" fill="none" xmlns="http://www.w3.org/2000/svg">
<path d="M148.457 5.45312V5.92773H149.863V15.5254H148.457V16H153.572C155.178 16 156.502 15.5078 157.545 14.5234C158.576 13.5508 159.092 12.291 159.092 10.7441C159.092 8.77539 158.359 7.31641 156.895 6.36719C155.945 5.75781 154.832 5.45312 153.555 5.45312H148.457ZM153.572 5.92773C155.002 5.92773 155.934 6.61914 156.367 8.00195C156.578 8.70508 156.684 9.5957 156.684 10.6738C156.684 13.3574 155.998 14.9219 154.627 15.3672C154.311 15.4727 153.959 15.5254 153.572 15.5254H152.025V5.92773H153.572ZM164.102 15.543H163.381V8.47656H160.305V8.91602H161.447V14.5938C161.447 15.0977 161.254 15.3965 160.867 15.4902C160.727 15.5254 160.539 15.543 160.305 15.543V16H164.523C164.523 15.7305 164.436 15.584 164.26 15.5605C164.213 15.5488 164.16 15.543 164.102 15.543ZM163.557 6.08594C163.557 5.60547 163.34 5.24805 162.906 5.01367C162.73 4.91992 162.549 4.87305 162.361 4.87305C161.881 4.87305 161.529 5.08984 161.307 5.52344C161.213 5.71094 161.166 5.89844 161.166 6.08594C161.166 6.57812 161.383 6.92969 161.816 7.14062C161.992 7.22266 162.174 7.26367 162.361 7.26367C162.842 7.26367 163.193 7.05859 163.416 6.64844C163.51 6.47266 163.557 6.28516 163.557 6.08594ZM168.355 15.6836C169.141 15.6836 169.627 15.4199 169.814 14.8926C169.85 14.7754 169.867 14.6582 169.867 14.541C169.867 13.9785 169.498 13.5039 168.76 13.1172C168.596 13.0352 168.338 12.918 167.986 12.7656C167.084 12.3672 166.48 12.0039 166.176 11.6758C165.859 11.3008 165.701 10.8672 165.701 10.375C165.701 9.44922 166.205 8.81055 167.213 8.45898C167.658 8.30664 168.156 8.23047 168.707 8.23047C169.562 8.23047 170.266 8.39453 170.816 8.72266C170.816 8.37109 170.91 8.17773 171.098 8.14258C171.156 8.13086 171.215 8.125 171.273 8.125V10.3223H170.746C170.699 9.25586 170.113 8.7168 168.988 8.70508C168.203 8.70508 167.717 8.95117 167.529 9.44336C167.482 9.57227 167.459 9.70117 167.459 9.83008C167.459 10.3223 167.811 10.75 168.514 11.1133C168.666 11.1836 168.912 11.2949 169.252 11.4473C170.178 11.8457 170.793 12.2148 171.098 12.5547C171.449 12.9531 171.625 13.4219 171.625 13.9609C171.625 14.957 171.109 15.625 170.078 15.9648C169.656 16.1055 169.188 16.1758 168.672 16.1758C167.688 16.1758 166.861 15.9824 166.193 15.5957C166.193 15.9004 166.117 16.0762 165.965 16.123C165.895 16.1348 165.812 16.1406 165.719 16.1406V13.4688H166.281C166.305 14.9336 166.996 15.6719 168.355 15.6836ZM176.635 8.6875C177.361 8.6875 177.795 9.11523 177.936 9.9707C177.971 10.1582 177.988 10.3516 177.988 10.5508C177.988 11.1016 177.789 11.4473 177.391 11.5879C177.133 11.6582 176.758 11.6875 176.266 11.6758L174.912 11.623C174.959 9.95898 175.398 8.99805 176.23 8.74023C176.371 8.70508 176.506 8.6875 176.635 8.6875ZM179.852 14.2246L179.43 14.084C179.09 14.8223 178.551 15.3086 177.812 15.543C177.566 15.625 177.314 15.666 177.057 15.666C175.686 15.666 174.971 14.5 174.912 12.168C174.912 12.1562 174.912 12.1445 174.912 12.1328L176.688 12.168C178.445 12.2031 179.5 11.9512 179.852 11.4121C179.969 11.2246 180.027 11.002 180.027 10.7441C180.027 9.81836 179.559 9.12109 178.621 8.65234C178.035 8.37109 177.373 8.23047 176.635 8.23047C175.287 8.23047 174.256 8.7168 173.541 9.68945C173.037 10.3809 172.785 11.2188 172.785 12.2031C172.785 13.8086 173.377 14.957 174.561 15.6484C175.193 16 175.902 16.1758 176.688 16.1758C178.023 16.1758 178.99 15.7012 179.588 14.752C179.693 14.5762 179.781 14.4004 179.852 14.2246ZM184.51 15.543H183.965L183.982 11.2012C184.064 10.2637 184.416 9.61914 185.037 9.26758C185.26 9.15039 185.482 9.0918 185.705 9.0918C186.361 9.0918 186.777 9.4375 186.953 10.1289C187.012 10.3398 187.041 10.5742 187.041 10.832V14.5938C187.041 15.0859 186.906 15.3789 186.637 15.4727C186.508 15.5195 186.32 15.543 186.074 15.543V16H190.1C190.1 15.7422 190.023 15.5957 189.871 15.5605C189.801 15.5488 189.73 15.543 189.66 15.543H188.975V11.0957C188.975 9.71289 188.494 8.82227 187.533 8.42383C187.229 8.29492 186.9 8.23047 186.549 8.23047C185.705 8.23047 184.99 8.56445 184.404 9.23242C184.217 9.45508 184.064 9.68945 183.947 9.93555L183.859 8.47656H180.906V8.91602H182.031V14.5938C182.031 15.1094 181.838 15.4082 181.451 15.4902C181.299 15.5254 181.117 15.543 180.906 15.543V16H184.949C184.949 15.7422 184.873 15.5957 184.721 15.5605C184.65 15.5488 184.58 15.543 184.51 15.543ZM184.457 4.64453C184.809 4.64453 185.271 4.83789 185.846 5.22461C186.314 5.55273 186.678 5.7168 186.936 5.7168C187.416 5.69336 187.738 5.36523 187.902 4.73242L188.271 4.80273C188.119 5.97461 187.703 6.67188 187.023 6.89453C186.895 6.94141 186.76 6.96484 186.619 6.96484C186.268 6.96484 185.805 6.77148 185.23 6.38477C184.762 6.05664 184.41 5.89258 184.176 5.89258C183.707 5.89258 183.385 6.16211 183.209 6.70117C183.197 6.75977 183.186 6.8125 183.174 6.85938L182.822 6.80664C182.963 5.61133 183.379 4.9082 184.07 4.69727C184.199 4.66211 184.328 4.64453 184.457 4.64453ZM193.123 12.2031C193.123 10.4219 193.439 9.32617 194.072 8.91602C194.33 8.76367 194.629 8.6875 194.969 8.6875C195.859 8.6875 196.422 9.19141 196.656 10.1992C196.773 10.6914 196.832 11.3359 196.832 12.1328C196.832 14.0195 196.475 15.1562 195.76 15.543C195.525 15.6602 195.262 15.7188 194.969 15.7188C194.09 15.7188 193.533 15.2148 193.299 14.207C193.182 13.7031 193.123 13.0352 193.123 12.2031ZM195.039 8.23047C193.703 8.23047 192.648 8.6875 191.875 9.60156C191.289 10.3047 190.996 11.1484 190.996 12.1328C190.996 13.4922 191.477 14.5586 192.438 15.332C193.141 15.8945 193.967 16.1758 194.916 16.1758C196.217 16.1758 197.254 15.707 198.027 14.7695C198.637 14.0312 198.941 13.1523 198.941 12.1328C198.941 10.7617 198.449 9.71289 197.465 8.98633C196.785 8.48242 195.977 8.23047 195.039 8.23047Z" fill="black"/>
<path opacity="0.8" d="M148.738 28.2334C148.738 27.085 148.993 26.1712 149.504 25.4922C150.019 24.8086 150.716 24.4668 151.596 24.4668C152.594 24.4668 153.355 24.861 153.879 25.6494V21.5H154.692V32H153.927L153.893 31.0156C153.368 31.763 152.598 32.1367 151.582 32.1367C150.73 32.1367 150.042 31.7949 149.518 31.1113C148.998 30.4232 148.738 29.4958 148.738 28.3291V28.2334ZM149.565 28.377C149.565 29.3203 149.755 30.0654 150.133 30.6123C150.511 31.1546 151.044 31.4258 151.732 31.4258C152.74 31.4258 153.455 30.9814 153.879 30.0928V26.6201C153.455 25.6585 152.744 25.1777 151.746 25.1777C151.058 25.1777 150.522 25.4489 150.14 25.9912C149.757 26.529 149.565 27.3242 149.565 28.377ZM159.71 32.1367C159.081 32.1367 158.511 31.9818 158.001 31.6719C157.495 31.362 157.101 30.9313 156.818 30.3799C156.536 29.8239 156.395 29.2018 156.395 28.5137V28.2197C156.395 27.5088 156.531 26.8685 156.805 26.2988C157.083 25.7292 157.468 25.2826 157.96 24.959C158.452 24.6309 158.985 24.4668 159.56 24.4668C160.457 24.4668 161.168 24.7744 161.692 25.3896C162.221 26.0003 162.485 26.8366 162.485 27.8984V28.3564H157.208V28.5137C157.208 29.3522 157.447 30.0518 157.926 30.6123C158.409 31.1683 159.015 31.4463 159.744 31.4463C160.182 31.4463 160.567 31.3665 160.899 31.207C161.237 31.0475 161.542 30.7923 161.815 30.4414L162.328 30.8311C161.727 31.7015 160.854 32.1367 159.71 32.1367ZM159.56 25.1641C158.944 25.1641 158.425 25.3896 158.001 25.8408C157.582 26.292 157.326 26.8981 157.235 27.6592H161.672V27.5703C161.649 26.8594 161.446 26.2806 161.063 25.834C160.681 25.3874 160.179 25.1641 159.56 25.1641ZM168.398 32H167.578V24.6035H168.398V32ZM167.435 22.4639C167.435 22.3089 167.485 22.179 167.585 22.0742C167.685 21.9648 167.822 21.9102 167.995 21.9102C168.168 21.9102 168.305 21.9648 168.405 22.0742C168.51 22.179 168.562 22.3089 168.562 22.4639C168.562 22.6188 168.51 22.7487 168.405 22.8535C168.305 22.9583 168.168 23.0107 167.995 23.0107C167.822 23.0107 167.685 22.9583 167.585 22.8535C167.485 22.7487 167.435 22.6188 167.435 22.4639ZM171.406 24.6035L171.434 25.8682C171.712 25.4124 172.058 25.0661 172.473 24.8291C172.887 24.5876 173.345 24.4668 173.847 24.4668C174.64 24.4668 175.23 24.6901 175.617 25.1367C176.005 25.5833 176.201 26.2533 176.205 27.1465V32H175.392V27.1396C175.387 26.4788 175.246 25.9867 174.968 25.6631C174.694 25.3395 174.255 25.1777 173.648 25.1777C173.143 25.1777 172.694 25.3372 172.302 25.6562C171.914 25.9707 171.627 26.3968 171.44 26.9346V32H170.627V24.6035H171.406ZM179.596 22.71V24.6035H181.127V25.2734H179.596V30.2021C179.596 30.6123 179.669 30.9176 179.814 31.1182C179.965 31.3187 180.213 31.4189 180.56 31.4189C180.696 31.4189 180.917 31.3962 181.223 31.3506L181.257 32.0205C181.043 32.098 180.751 32.1367 180.382 32.1367C179.821 32.1367 179.413 31.9749 179.158 31.6514C178.903 31.3232 178.775 30.8424 178.775 30.209V25.2734H177.415V24.6035H178.775V22.71H179.596ZM185.687 32.1367C185.058 32.1367 184.488 31.9818 183.978 31.6719C183.472 31.362 183.077 30.9313 182.795 30.3799C182.512 29.8239 182.371 29.2018 182.371 28.5137V28.2197C182.371 27.5088 182.508 26.8685 182.781 26.2988C183.059 25.7292 183.444 25.2826 183.937 24.959C184.429 24.6309 184.962 24.4668 185.536 24.4668C186.434 24.4668 187.145 24.7744 187.669 25.3896C188.198 26.0003 188.462 26.8366 188.462 27.8984V28.3564H183.185V28.5137C183.185 29.3522 183.424 30.0518 183.902 30.6123C184.385 31.1683 184.992 31.4463 185.721 31.4463C186.158 31.4463 186.543 31.3665 186.876 31.207C187.213 31.0475 187.519 30.7923 187.792 30.4414L188.305 30.8311C187.703 31.7015 186.83 32.1367 185.687 32.1367ZM185.536 25.1641C184.921 25.1641 184.401 25.3896 183.978 25.8408C183.558 26.292 183.303 26.8981 183.212 27.6592H187.648V27.5703C187.626 26.8594 187.423 26.2806 187.04 25.834C186.657 25.3874 186.156 25.1641 185.536 25.1641ZM193.473 25.3008C193.299 25.2689 193.115 25.2529 192.919 25.2529C192.409 25.2529 191.976 25.3965 191.62 25.6836C191.269 25.9661 191.019 26.3786 190.868 26.9209V32H190.055V24.6035H190.854L190.868 25.7793C191.301 24.9043 191.996 24.4668 192.953 24.4668C193.181 24.4668 193.361 24.4964 193.493 24.5557L193.473 25.3008ZM195.688 32H194.867V24.6035H195.688V32ZM194.724 22.4639C194.724 22.3089 194.774 22.179 194.874 22.0742C194.974 21.9648 195.111 21.9102 195.284 21.9102C195.457 21.9102 195.594 21.9648 195.694 22.0742C195.799 22.179 195.852 22.3089 195.852 22.4639C195.852 22.6188 195.799 22.7487 195.694 22.8535C195.594 22.9583 195.457 23.0107 195.284 23.0107C195.111 23.0107 194.974 22.9583 194.874 22.8535C194.774 22.7487 194.724 22.6188 194.724 22.4639ZM197.465 28.1924C197.465 27.4814 197.602 26.8411 197.875 26.2715C198.153 25.7018 198.543 25.2598 199.044 24.9453C199.55 24.6263 200.122 24.4668 200.76 24.4668C201.744 24.4668 202.542 24.8132 203.152 25.5059C203.763 26.194 204.068 27.1077 204.068 28.2471V28.418C204.068 29.1335 203.929 29.7783 203.651 30.3525C203.378 30.9222 202.991 31.362 202.489 31.6719C201.988 31.9818 201.416 32.1367 200.773 32.1367C199.794 32.1367 198.996 31.7926 198.381 31.1045C197.77 30.4118 197.465 29.4958 197.465 28.3564V28.1924ZM198.285 28.418C198.285 29.3021 198.513 30.029 198.969 30.5986C199.429 31.1637 200.031 31.4463 200.773 31.4463C201.512 31.4463 202.109 31.1637 202.564 30.5986C203.025 30.029 203.255 29.2793 203.255 28.3496V28.1924C203.255 27.6273 203.15 27.11 202.94 26.6406C202.731 26.1712 202.437 25.8089 202.059 25.5537C201.68 25.2939 201.247 25.1641 200.76 25.1641C200.031 25.1641 199.436 25.4512 198.976 26.0254C198.515 26.5951 198.285 27.3424 198.285 28.2676V28.418ZM209.182 25.3008C209.008 25.2689 208.824 25.2529 208.628 25.2529C208.118 25.2529 207.685 25.3965 207.329 25.6836C206.978 25.9661 206.728 26.3786 206.577 26.9209V32H205.764V24.6035H206.563L206.577 25.7793C207.01 24.9043 207.705 24.4668 208.662 24.4668C208.89 24.4668 209.07 24.4964 209.202 24.5557L209.182 25.3008ZM213.208 32.1367C212.579 32.1367 212.009 31.9818 211.499 31.6719C210.993 31.362 210.599 30.9313 210.316 30.3799C210.034 29.8239 209.893 29.2018 209.893 28.5137V28.2197C209.893 27.5088 210.029 26.8685 210.303 26.2988C210.581 25.7292 210.966 25.2826 211.458 24.959C211.95 24.6309 212.483 24.4668 213.058 24.4668C213.955 24.4668 214.666 24.7744 215.19 25.3896C215.719 26.0003 215.983 26.8366 215.983 27.8984V28.3564H210.706V28.5137C210.706 29.3522 210.945 30.0518 211.424 30.6123C211.907 31.1683 212.513 31.4463 213.242 31.4463C213.68 31.4463 214.065 31.3665 214.397 31.207C214.735 31.0475 215.04 30.7923 215.313 30.4414L215.826 30.8311C215.225 31.7015 214.352 32.1367 213.208 32.1367ZM213.058 25.1641C212.442 25.1641 211.923 25.3896 211.499 25.8408C211.08 26.292 210.825 26.8981 210.733 27.6592H215.17V27.5703C215.147 26.8594 214.944 26.2806 214.562 25.834C214.179 25.3874 213.677 25.1641 213.058 25.1641ZM222.006 30.1201C222.006 29.7145 221.842 29.3887 221.514 29.1426C221.19 28.8965 220.7 28.7051 220.044 28.5684C219.388 28.4271 218.877 28.2676 218.513 28.0898C218.153 27.9076 217.884 27.6865 217.706 27.4268C217.533 27.167 217.446 26.8525 217.446 26.4834C217.446 25.9001 217.69 25.4193 218.178 25.041C218.665 24.6582 219.29 24.4668 220.051 24.4668C220.876 24.4668 221.536 24.6719 222.033 25.082C222.535 25.4876 222.785 26.0186 222.785 26.6748H221.965C221.965 26.2419 221.783 25.8818 221.418 25.5947C221.058 25.3076 220.602 25.1641 220.051 25.1641C219.513 25.1641 219.08 25.2848 218.752 25.5264C218.428 25.7633 218.267 26.0732 218.267 26.4561C218.267 26.8252 218.401 27.1123 218.67 27.3174C218.943 27.5179 219.438 27.7025 220.153 27.8711C220.873 28.0397 221.411 28.2197 221.767 28.4111C222.127 28.6025 222.393 28.8327 222.566 29.1016C222.74 29.3704 222.826 29.6963 222.826 30.0791C222.826 30.7035 222.573 31.2025 222.067 31.5762C221.566 31.9499 220.91 32.1367 220.099 32.1367C219.237 32.1367 218.538 31.9294 218 31.5146C217.467 31.0954 217.2 30.5667 217.2 29.9287H218.021C218.052 30.4072 218.253 30.7809 218.622 31.0498C218.996 31.3141 219.488 31.4463 220.099 31.4463C220.668 31.4463 221.129 31.321 221.479 31.0703C221.83 30.8197 222.006 30.5029 222.006 30.1201Z" fill="black"/>
<path d="M6.02171 29.7363V24.0027C7.80806 19.3064 14.1179 15.9354 15.6161 15.0134C17.1143 14.1202 22.1276 12.161 22.0412 7.78158C22.0412 0.953125 15.6161 0.953125 12.7925 0.953125C11.1791 0.953125 0 0.953125 0 0.953125C1.84397 2.22085 2.93883 4.32413 2.93883 6.54266V30.9753C2.93883 32.6464 2.18971 34.2598 0.921985 35.3547H2.93883H6.05053H8.98935C7.11657 34.087 6.02171 31.9837 6.02171 29.7363ZM6.02171 1.52937C7.54875 1.52937 9.79609 1.52937 12.1299 1.52937C16.7398 1.52937 17.9499 6.05285 17.9787 6.57147C18.0363 7.72395 18.6414 11.8441 14.4925 14.8117C10.8333 17.4336 7.05895 20.9775 6.02171 22.0147V1.52937Z" fill="black"/>
<path d="M20.0538 17.0015C15.0981 17.0015 11.0645 21.1216 11.0645 26.2213C11.0645 31.321 15.0693 35.4412 20.0538 35.4412C25.0095 35.4412 29.0432 31.321 29.0432 26.2213C29.0144 21.1216 25.0095 17.0015 20.0538 17.0015ZM20.0538 34.7785C17.2014 34.7785 14.8676 30.9465 14.8676 26.2213C14.8676 21.4961 17.1726 17.6641 20.0538 17.6641C22.9062 17.6641 25.24 21.4961 25.24 26.2213C25.24 30.9177 22.9062 34.7785 20.0538 34.7785Z" fill="black"/>
<path d="M124.181 6.45622C125.708 6.45622 126.918 5.2173 126.918 3.71908C126.918 2.19204 125.679 0.981934 124.181 0.981934C122.653 0.981934 121.443 2.22085 121.443 3.71908C121.443 5.2173 122.682 6.45622 124.181 6.45622ZM124.181 1.27005C125.506 1.27005 126.601 2.36491 126.601 3.69026C126.601 5.01562 125.506 6.11048 124.181 6.11048C122.855 6.11048 121.76 5.01562 121.76 3.69026C121.76 2.36491 122.855 1.27005 124.181 1.27005Z" fill="black"/>
<path d="M123.431 3.86299H123.892C123.978 3.86299 124.065 3.86299 124.093 3.86299C124.151 3.8918 124.209 3.8918 124.266 3.94942C124.324 4.00705 124.382 4.06467 124.468 4.15111C124.554 4.23754 124.641 4.3816 124.756 4.55447L125.131 5.15953H125.62L125.102 4.35279C124.987 4.20873 124.9 4.06467 124.785 3.97823C124.727 3.92061 124.641 3.8918 124.554 3.83417C124.842 3.80536 125.044 3.71893 125.188 3.57487C125.332 3.43081 125.39 3.25793 125.39 3.05625C125.39 2.88338 125.361 2.73932 125.275 2.62407C125.188 2.48001 125.073 2.39357 124.958 2.33595C124.814 2.27832 124.612 2.24951 124.353 2.24951H123.027V5.18834H123.402V3.86299H123.431ZM123.431 2.56644H124.353C124.583 2.56644 124.727 2.62407 124.842 2.7105C124.929 2.79694 124.987 2.91219 124.987 3.05625C124.987 3.14268 124.958 3.22912 124.9 3.31556C124.843 3.40199 124.785 3.45962 124.67 3.48843C124.583 3.51724 124.439 3.54605 124.266 3.54605H123.431V2.56644Z" fill="black"/>
<path d="M103.406 30.6871V5.21731C103.406 3.57502 104.126 2.01917 105.394 0.953125H99.9196C101.735 2.22085 102.83 4.29532 102.83 6.48504V32.5887L85.6865 0.953125H81.2782C82.8629 2.24967 83.7849 4.20888 83.7849 6.28335V15.7049C82.3155 14.6388 80.5291 14.005 78.5987 14.005C73.6431 14.005 69.6094 18.1251 69.6094 23.2248C69.6094 28.3246 73.6142 32.4447 78.5987 32.4447C80.5291 32.4447 82.3155 31.8108 83.7849 30.7448V31.1193C83.7849 32.7904 83.0646 34.3751 81.7969 35.4699H87.2711C85.5424 34.2598 84.5052 32.3582 84.3611 30.2838C86.3203 28.5839 87.5593 26.0772 87.5593 23.2248C87.5593 20.4012 86.3203 17.8658 84.3611 16.1659V4.29532L100.582 34.2886C100.957 34.9801 101.677 35.4123 102.484 35.4123H104.299H105.797C104.299 34.3175 103.406 32.5599 103.406 30.6871ZM78.6275 31.6379C75.7751 31.6379 73.4414 27.8059 73.4414 23.0808C73.4414 18.3556 75.7463 14.5236 78.6275 14.5236C81.4799 14.5236 83.8137 18.3556 83.8137 23.0808C83.8137 27.8059 81.5087 31.6379 78.6275 31.6379Z" fill="black"/>
<path d="M121.961 35.3835L130 35.3547C128.098 34.0293 126.686 32.1277 125.966 29.938L118.072 5.15968C117.582 3.66146 118.043 1.99036 119.253 0.953125H113.433C113.894 2.27848 113.894 3.71908 113.462 5.04443L110.753 13.3423C109.169 11.4983 108.823 9.5103 108.794 8.09851C106.489 8.09851 105.423 10.9797 107.181 12.4779C108.247 13.3999 109.457 14.0338 110.35 14.4948L104.588 32.4159C104.472 32.7328 104.588 33.1074 104.847 33.309L104.905 33.3378L110.926 14.7829C111.042 14.8405 111.157 14.8981 111.243 14.9558C112.741 15.8778 119.051 19.2488 120.838 23.9451L123.143 31.1481C123.632 32.6752 123.171 34.3463 121.961 35.3835ZM112.367 14.8117C111.935 14.4948 111.56 14.1778 111.214 13.8609L114.384 4.03601L119.916 21.1215C118.302 19.5945 115.306 16.915 112.367 14.8117Z" fill="black"/>
<path d="M47.1363 1.52937H55.002V0.953125H26.2188V1.52937L28.6101 4.12245L29.4457 3.34452C30.7134 2.16323 32.3845 1.52937 34.1132 1.52937H44.0822V33.309C44.0822 33.309 44.111 33.309 44.1398 33.309C45.6381 33.2802 46.877 32.1854 47.1363 30.7448C47.1363 30.6871 47.1651 30.6295 47.1651 30.5719C47.1651 30.5431 47.1651 30.5143 47.1651 30.4855C47.1651 30.4278 47.1651 30.3702 47.1651 30.3126C47.1651 30.2838 47.1651 30.2261 47.1651 30.1973V1.52937H47.1363Z" fill="black"/>
<path d="M78.6284 35.0378C78.6284 35.0378 75.1422 37.9766 72.866 36.6512C70.6187 35.3259 69.2645 30.8888 64.1936 17.9522C66.124 16.4828 67.968 15.4456 68.7171 15.0134C70.2153 14.1202 75.2286 12.161 75.1422 7.78158C75.1422 0.953125 68.7171 0.953125 65.9223 0.953125H59.2091H56.0974V1.52937V31.1193C56.0974 32.7904 55.3771 34.3463 54.1094 35.4411H61.8598C60.1887 34.3751 59.2091 32.5311 59.2091 30.5431V23.8299C59.6989 22.591 60.5345 21.4673 61.4564 20.4301C63.1275 24.723 67.1036 35.4699 72.866 37.0834C76.7556 38.2647 79.1758 37.8613 80.7029 36.9394L78.6284 35.0378ZM59.2091 21.9859V1.52937H65.2596C69.8696 1.52937 71.0508 6.05285 71.1085 6.57147C71.1949 7.40702 71.7711 11.8441 67.6222 14.8117C64.0495 17.4048 60.3328 20.8622 59.2091 21.9859Z" fill="black"/>
<path d="M49.8735 32.2719L49.038 33.0498C47.7702 34.2311 46.0991 34.865 44.3704 34.865H34.6319V8.15625C34.6319 8.15625 34.6031 8.15625 34.5743 8.15625C33.0761 8.18506 31.8372 9.27992 31.5779 10.7205C31.5779 10.7781 31.5491 10.8358 31.5491 10.8934C31.5491 10.9222 31.5491 10.951 31.5491 10.9798C31.5491 11.0375 31.5491 11.0951 31.5491 11.1527C31.5491 11.1815 31.5491 11.2391 31.5491 11.2679V31.0906C31.5491 32.7617 30.8288 34.3752 29.5898 35.4701H34.6608H52.2649V34.8938L49.8735 32.2719Z" fill="black"/>
</svg>
