<svg width="18" height="19" viewBox="0 0 18 19" fill="none" xmlns="http://www.w3.org/2000/svg">
<path fill-rule="evenodd" clip-rule="evenodd" d="M17.8141 17.8084L13.5467 13.5516C16.5367 10.5342 16.6279 5.6905 13.7534 2.56212C10.8789 -0.566262 6.05802 -0.870088 2.81567 1.87279C-0.42668 4.61567 -0.940857 9.43269 1.64909 12.8018C4.23904 16.1709 9.01478 16.8974 12.4844 14.4502L16.835 18.8135C17.1079 19.0686 17.5333 19.0611 17.7971 18.7965C18.0609 18.5319 18.0684 18.1053 17.8141 17.8315V17.8084ZM1.50645 7.99324C1.50645 4.41181 4.40127 1.50848 7.97223 1.50848C11.5432 1.50848 14.438 4.41181 14.438 7.99324C14.438 11.5747 11.5432 14.478 7.97223 14.478C4.40127 14.478 1.50645 11.5747 1.50645 7.99324Z" fill="black"/>
</svg>
