<svg width="75" height="107" viewBox="0 0 75 107" fill="none" xmlns="http://www.w3.org/2000/svg">
<rect width="75" height="75" rx="37.5" fill="#F3F3F3"/>
<path d="M38 24.7028C42.0052 24.7028 42.4795 24.718 44.0612 24.7902C45.5237 24.8569 46.318 25.1013 46.8466 25.3066C47.5467 25.5787 48.0464 25.9039 48.5713 26.4287C49.0961 26.9536 49.4213 27.4533 49.6933 28.1534C49.8987 28.682 50.1431 29.4763 50.2098 30.9387C50.282 32.5205 50.2972 32.9948 50.2972 37C50.2972 41.0052 50.282 41.4796 50.2098 43.0613C50.1431 44.5238 49.8987 45.318 49.6933 45.8466C49.4213 46.5467 49.0961 47.0465 48.5713 47.5713C48.0464 48.0962 47.5467 48.4213 46.8466 48.6934C46.318 48.8988 45.5237 49.1431 44.0612 49.2099C42.4798 49.2821 42.0054 49.2973 38 49.2973C33.9945 49.2973 33.5202 49.2821 31.9387 49.2099C30.4762 49.1431 29.682 48.8988 29.1534 48.6934C28.4533 48.4213 27.9535 48.0962 27.4287 47.5713C26.9038 47.0465 26.5787 46.5467 26.3066 45.8466C26.1012 45.318 25.8569 44.5238 25.7901 43.0613C25.7179 41.4796 25.7027 41.0052 25.7027 37C25.7027 32.9948 25.7179 32.5205 25.7901 30.9388C25.8569 29.4763 26.1012 28.682 26.3066 28.1534C26.5787 27.4533 26.9038 26.9536 27.4287 26.4287C27.9535 25.9039 28.4533 25.5787 29.1534 25.3066C29.682 25.1013 30.4762 24.8569 31.9387 24.7902C33.5204 24.718 33.9948 24.7028 38 24.7028ZM38 22C33.9262 22 33.4154 22.0173 31.8155 22.0903C30.2189 22.1631 29.1285 22.4167 28.1744 22.7875C27.188 23.1708 26.3515 23.6837 25.5176 24.5176C24.6837 25.3515 24.1708 26.188 23.7875 27.1744C23.4166 28.1286 23.1631 29.2189 23.0902 30.8156C23.0172 32.4154 23 32.9262 23 37C23 41.0738 23.0172 41.5846 23.0902 43.1845C23.1631 44.7811 23.4166 45.8715 23.7875 46.8256C24.1708 47.812 24.6837 48.6485 25.5176 49.4824C26.3515 50.3163 27.188 50.8292 28.1744 51.2125C29.1285 51.5834 30.2189 51.8369 31.8155 51.9098C33.4154 51.9828 33.9262 52 38 52C42.0738 52 42.5846 51.9828 44.1844 51.9098C45.7811 51.8369 46.8714 51.5834 47.8256 51.2125C48.812 50.8292 49.6485 50.3163 50.4824 49.4824C51.3163 48.6485 51.8292 47.812 52.2125 46.8256C52.5833 45.8715 52.8369 44.7811 52.9097 43.1845C52.9827 41.5846 53 41.0738 53 37C53 32.9262 52.9827 32.4154 52.9097 30.8156C52.8369 29.2189 52.5833 28.1286 52.2125 27.1744C51.8292 26.188 51.3163 25.3515 50.4824 24.5176C49.6485 23.6837 48.812 23.1708 47.8256 22.7875C46.8714 22.4167 45.7811 22.1631 44.1844 22.0903C42.5846 22.0173 42.0738 22 38 22ZM38 29.2973C33.7459 29.2973 30.2972 32.746 30.2972 37C30.2972 41.2541 33.7459 44.7028 38 44.7028C42.2541 44.7028 45.7027 41.2541 45.7027 37C45.7027 32.746 42.2541 29.2973 38 29.2973ZM38 42.0001C35.2386 42.0001 32.9999 39.7614 32.9999 37C32.9999 34.2386 35.2386 32 38 32C40.7614 32 43 34.2386 43 37C43 39.7614 40.7614 42.0001 38 42.0001ZM47.807 28.993C47.807 29.9871 47.0011 30.793 46.007 30.793C45.0129 30.793 44.207 29.9871 44.207 28.993C44.207 27.9989 45.0129 27.193 46.007 27.193C47.0011 27.193 47.807 27.9989 47.807 28.993Z" fill="black"/>
<path opacity="0.8" d="M7.96777 92.0469V102H6.64844V92.0469H7.96777ZM11.4404 96.1826V102H10.1758V94.6035H11.3721L11.4404 96.1826ZM11.1396 98.0215L10.6133 98.001C10.6178 97.4951 10.693 97.028 10.8389 96.5996C10.9847 96.1667 11.1898 95.7907 11.4541 95.4717C11.7184 95.1527 12.0329 94.9066 12.3975 94.7334C12.7666 94.5557 13.1745 94.4668 13.6211 94.4668C13.9857 94.4668 14.3138 94.5169 14.6055 94.6172C14.8971 94.7129 15.1455 94.8678 15.3506 95.082C15.5602 95.2962 15.7197 95.5742 15.8291 95.916C15.9385 96.2533 15.9932 96.6657 15.9932 97.1533V102H14.7217V97.1396C14.7217 96.7523 14.6647 96.4424 14.5508 96.21C14.4368 95.973 14.2705 95.8021 14.0518 95.6973C13.833 95.5879 13.5641 95.5332 13.2451 95.5332C12.9307 95.5332 12.6436 95.5993 12.3838 95.7314C12.1286 95.8636 11.9076 96.0459 11.7207 96.2783C11.5384 96.5107 11.3949 96.7773 11.29 97.0781C11.1898 97.3743 11.1396 97.6888 11.1396 98.0215ZM22.2207 100.038C22.2207 99.8558 22.1797 99.6872 22.0977 99.5322C22.0202 99.3727 21.8584 99.2292 21.6123 99.1016C21.3708 98.9694 21.0062 98.8555 20.5186 98.7598C20.1084 98.6732 19.737 98.5706 19.4043 98.4521C19.0762 98.3337 18.7959 98.1901 18.5635 98.0215C18.3356 97.8529 18.1602 97.6546 18.0371 97.4268C17.9141 97.1989 17.8525 96.9323 17.8525 96.627C17.8525 96.3353 17.9163 96.0596 18.0439 95.7998C18.1761 95.54 18.3607 95.3099 18.5977 95.1094C18.8392 94.9089 19.1286 94.7516 19.4658 94.6377C19.8031 94.5238 20.179 94.4668 20.5938 94.4668C21.1862 94.4668 21.6921 94.5716 22.1113 94.7812C22.5306 94.9909 22.8519 95.2712 23.0752 95.6221C23.2985 95.9684 23.4102 96.3535 23.4102 96.7773H22.1455C22.1455 96.5723 22.084 96.374 21.9609 96.1826C21.8424 95.9867 21.667 95.8249 21.4346 95.6973C21.2067 95.5697 20.9264 95.5059 20.5938 95.5059C20.2428 95.5059 19.958 95.5605 19.7393 95.6699C19.5251 95.7747 19.3678 95.9092 19.2676 96.0732C19.1719 96.2373 19.124 96.4105 19.124 96.5928C19.124 96.7295 19.1468 96.8525 19.1924 96.9619C19.2425 97.0667 19.3291 97.1647 19.4521 97.2559C19.5752 97.3424 19.7484 97.4245 19.9717 97.502C20.195 97.5794 20.4798 97.6569 20.8262 97.7344C21.4323 97.8711 21.9313 98.0352 22.3232 98.2266C22.7152 98.418 23.0068 98.6527 23.1982 98.9307C23.3896 99.2087 23.4854 99.5459 23.4854 99.9424C23.4854 100.266 23.417 100.562 23.2803 100.831C23.1481 101.1 22.9544 101.332 22.6992 101.528C22.4486 101.72 22.1478 101.87 21.7969 101.979C21.4505 102.084 21.0609 102.137 20.6279 102.137C19.9762 102.137 19.4248 102.021 18.9736 101.788C18.5225 101.556 18.1807 101.255 17.9482 100.886C17.7158 100.517 17.5996 100.127 17.5996 99.7168H18.8711C18.8893 100.063 18.9896 100.339 19.1719 100.544C19.3542 100.744 19.5775 100.888 19.8418 100.975C20.1061 101.057 20.3682 101.098 20.6279 101.098C20.9743 101.098 21.2637 101.052 21.4961 100.961C21.7331 100.87 21.9131 100.744 22.0361 100.585C22.1592 100.425 22.2207 100.243 22.2207 100.038ZM28.2432 94.6035V95.5742H24.2441V94.6035H28.2432ZM25.5977 92.8057H26.8623V100.168C26.8623 100.419 26.901 100.608 26.9785 100.735C27.056 100.863 27.1562 100.947 27.2793 100.988C27.4023 101.029 27.5345 101.05 27.6758 101.05C27.7806 101.05 27.89 101.041 28.0039 101.022C28.1224 101 28.2113 100.981 28.2705 100.968L28.2773 102C28.1771 102.032 28.0449 102.062 27.8809 102.089C27.7214 102.121 27.5277 102.137 27.2998 102.137C26.9899 102.137 26.7051 102.075 26.4453 101.952C26.1855 101.829 25.9782 101.624 25.8232 101.337C25.6729 101.045 25.5977 100.653 25.5977 100.161V92.8057ZM34.0879 100.735V96.9277C34.0879 96.6361 34.0286 96.3831 33.9102 96.1689C33.7962 95.9502 33.623 95.7816 33.3906 95.6631C33.1582 95.5446 32.8711 95.4854 32.5293 95.4854C32.2103 95.4854 31.93 95.54 31.6885 95.6494C31.4515 95.7588 31.2646 95.9023 31.1279 96.0801C30.9958 96.2578 30.9297 96.4492 30.9297 96.6543H29.665C29.665 96.39 29.7334 96.1279 29.8701 95.8682C30.0068 95.6084 30.2028 95.3737 30.458 95.1641C30.7178 94.9499 31.0277 94.7812 31.3877 94.6582C31.7523 94.5306 32.1579 94.4668 32.6045 94.4668C33.1423 94.4668 33.6162 94.5579 34.0264 94.7402C34.4411 94.9225 34.7646 95.1982 34.9971 95.5674C35.234 95.932 35.3525 96.39 35.3525 96.9414V100.387C35.3525 100.633 35.373 100.895 35.4141 101.173C35.4596 101.451 35.5257 101.69 35.6123 101.891V102H34.293C34.2292 101.854 34.179 101.66 34.1426 101.419C34.1061 101.173 34.0879 100.945 34.0879 100.735ZM34.3066 97.5156L34.3203 98.4043H33.042C32.682 98.4043 32.3607 98.4339 32.0781 98.4932C31.7956 98.5479 31.5586 98.6322 31.3672 98.7461C31.1758 98.86 31.0299 99.0036 30.9297 99.1768C30.8294 99.3454 30.7793 99.5436 30.7793 99.7715C30.7793 100.004 30.8317 100.216 30.9365 100.407C31.0413 100.599 31.1986 100.751 31.4082 100.865C31.6224 100.975 31.8844 101.029 32.1943 101.029C32.5817 101.029 32.9235 100.947 33.2197 100.783C33.516 100.619 33.7507 100.419 33.9238 100.182C34.1016 99.9447 34.1973 99.7145 34.2109 99.4912L34.751 100.1C34.7191 100.291 34.6325 100.503 34.4912 100.735C34.3499 100.968 34.1608 101.191 33.9238 101.405C33.6914 101.615 33.4134 101.79 33.0898 101.932C32.7708 102.068 32.4108 102.137 32.0098 102.137C31.5085 102.137 31.0687 102.039 30.6904 101.843C30.3167 101.647 30.0251 101.385 29.8154 101.057C29.6104 100.724 29.5078 100.353 29.5078 99.9424C29.5078 99.5459 29.5853 99.1973 29.7402 98.8965C29.8952 98.5911 30.1185 98.3382 30.4102 98.1377C30.7018 97.9326 31.0527 97.7777 31.4629 97.6729C31.873 97.568 32.3311 97.5156 32.8369 97.5156H34.3066ZM42.1338 94.6035H43.2822V101.843C43.2822 102.494 43.1501 103.05 42.8857 103.511C42.6214 103.971 42.2523 104.32 41.7783 104.557C41.3089 104.798 40.7666 104.919 40.1514 104.919C39.8962 104.919 39.5954 104.878 39.249 104.796C38.9072 104.718 38.57 104.584 38.2373 104.393C37.9092 104.206 37.6335 103.953 37.4102 103.634L38.0732 102.882C38.3831 103.256 38.7067 103.515 39.0439 103.661C39.3857 103.807 39.723 103.88 40.0557 103.88C40.4567 103.88 40.8031 103.805 41.0947 103.654C41.3864 103.504 41.612 103.281 41.7715 102.984C41.9355 102.693 42.0176 102.333 42.0176 101.904V96.2305L42.1338 94.6035ZM37.041 98.3838V98.2402C37.041 97.6751 37.1071 97.1624 37.2393 96.7021C37.376 96.2373 37.5697 95.8385 37.8203 95.5059C38.0755 95.1732 38.3831 94.918 38.7432 94.7402C39.1032 94.5579 39.5088 94.4668 39.96 94.4668C40.4248 94.4668 40.8304 94.5488 41.1768 94.7129C41.5277 94.8724 41.8239 95.1071 42.0654 95.417C42.3115 95.7223 42.5052 96.0915 42.6465 96.5244C42.7878 96.9574 42.8857 97.4473 42.9404 97.9941V98.623C42.8903 99.1654 42.7923 99.653 42.6465 100.086C42.5052 100.519 42.3115 100.888 42.0654 101.193C41.8239 101.499 41.5277 101.733 41.1768 101.897C40.8258 102.057 40.4157 102.137 39.9463 102.137C39.5042 102.137 39.1032 102.043 38.7432 101.856C38.3877 101.67 38.0824 101.408 37.8271 101.07C37.5719 100.733 37.376 100.337 37.2393 99.8809C37.1071 99.4206 37.041 98.9215 37.041 98.3838ZM38.3057 98.2402V98.3838C38.3057 98.7529 38.3421 99.0993 38.415 99.4229C38.4925 99.7464 38.6087 100.031 38.7637 100.277C38.9232 100.523 39.126 100.717 39.3721 100.858C39.6182 100.995 39.9121 101.063 40.2539 101.063C40.6732 101.063 41.0195 100.975 41.293 100.797C41.5664 100.619 41.7829 100.384 41.9424 100.093C42.1064 99.8011 42.234 99.4844 42.3252 99.1426V97.4951C42.2751 97.2445 42.1976 97.0029 42.0928 96.7705C41.9925 96.5335 41.8604 96.3239 41.6963 96.1416C41.5368 95.9548 41.3385 95.8066 41.1016 95.6973C40.8646 95.5879 40.5866 95.5332 40.2676 95.5332C39.9212 95.5332 39.6227 95.6061 39.3721 95.752C39.126 95.8932 38.9232 96.0892 38.7637 96.3398C38.6087 96.5859 38.4925 96.873 38.415 97.2012C38.3421 97.5247 38.3057 97.8711 38.3057 98.2402ZM46.4678 95.7656V102H45.2031V94.6035H46.4336L46.4678 95.7656ZM48.7783 94.5625L48.7715 95.7383C48.6667 95.7155 48.5664 95.7018 48.4707 95.6973C48.3796 95.6882 48.2747 95.6836 48.1562 95.6836C47.8646 95.6836 47.6071 95.7292 47.3838 95.8203C47.1605 95.9115 46.9714 96.0391 46.8164 96.2031C46.6615 96.3672 46.5384 96.5632 46.4473 96.791C46.3607 97.0143 46.3037 97.2604 46.2764 97.5293L45.9209 97.7344C45.9209 97.2878 45.9642 96.8685 46.0508 96.4766C46.1419 96.0846 46.2809 95.7383 46.4678 95.4375C46.6546 95.1322 46.8916 94.8952 47.1787 94.7266C47.4704 94.5534 47.8167 94.4668 48.2178 94.4668C48.3089 94.4668 48.4137 94.4782 48.5322 94.501C48.6507 94.5192 48.7327 94.5397 48.7783 94.5625ZM54.0352 100.735V96.9277C54.0352 96.6361 53.9759 96.3831 53.8574 96.1689C53.7435 95.9502 53.5703 95.7816 53.3379 95.6631C53.1055 95.5446 52.8184 95.4854 52.4766 95.4854C52.1576 95.4854 51.8773 95.54 51.6357 95.6494C51.3988 95.7588 51.2119 95.9023 51.0752 96.0801C50.943 96.2578 50.877 96.4492 50.877 96.6543H49.6123C49.6123 96.39 49.6807 96.1279 49.8174 95.8682C49.9541 95.6084 50.1501 95.3737 50.4053 95.1641C50.665 94.9499 50.9749 94.7812 51.335 94.6582C51.6995 94.5306 52.1051 94.4668 52.5518 94.4668C53.0895 94.4668 53.5635 94.5579 53.9736 94.7402C54.3883 94.9225 54.7119 95.1982 54.9443 95.5674C55.1813 95.932 55.2998 96.39 55.2998 96.9414V100.387C55.2998 100.633 55.3203 100.895 55.3613 101.173C55.4069 101.451 55.473 101.69 55.5596 101.891V102H54.2402C54.1764 101.854 54.1263 101.66 54.0898 101.419C54.0534 101.173 54.0352 100.945 54.0352 100.735ZM54.2539 97.5156L54.2676 98.4043H52.9893C52.6292 98.4043 52.3079 98.4339 52.0254 98.4932C51.7428 98.5479 51.5059 98.6322 51.3145 98.7461C51.123 98.86 50.9772 99.0036 50.877 99.1768C50.7767 99.3454 50.7266 99.5436 50.7266 99.7715C50.7266 100.004 50.779 100.216 50.8838 100.407C50.9886 100.599 51.1458 100.751 51.3555 100.865C51.5697 100.975 51.8317 101.029 52.1416 101.029C52.529 101.029 52.8708 100.947 53.167 100.783C53.4632 100.619 53.6979 100.419 53.8711 100.182C54.0488 99.9447 54.1445 99.7145 54.1582 99.4912L54.6982 100.1C54.6663 100.291 54.5798 100.503 54.4385 100.735C54.2972 100.968 54.1081 101.191 53.8711 101.405C53.6387 101.615 53.3607 101.79 53.0371 101.932C52.7181 102.068 52.3581 102.137 51.957 102.137C51.4557 102.137 51.016 102.039 50.6377 101.843C50.264 101.647 49.9723 101.385 49.7627 101.057C49.5576 100.724 49.4551 100.353 49.4551 99.9424C49.4551 99.5459 49.5326 99.1973 49.6875 98.8965C49.8424 98.5911 50.0658 98.3382 50.3574 98.1377C50.6491 97.9326 51 97.7777 51.4102 97.6729C51.8203 97.568 52.2783 97.5156 52.7842 97.5156H54.2539ZM58.5469 96.0732V102H57.2754V94.6035H58.4785L58.5469 96.0732ZM58.2871 98.0215L57.6992 98.001C57.7038 97.4951 57.7699 97.028 57.8975 96.5996C58.0251 96.1667 58.2142 95.7907 58.4648 95.4717C58.7155 95.1527 59.0277 94.9066 59.4014 94.7334C59.7751 94.5557 60.208 94.4668 60.7002 94.4668C61.0465 94.4668 61.3656 94.5169 61.6572 94.6172C61.9489 94.7129 62.2018 94.8656 62.416 95.0752C62.6302 95.2848 62.7965 95.5537 62.915 95.8818C63.0335 96.21 63.0928 96.6064 63.0928 97.0713V102H61.8281V97.1328C61.8281 96.7454 61.762 96.4355 61.6299 96.2031C61.5023 95.9707 61.32 95.8021 61.083 95.6973C60.846 95.5879 60.568 95.5332 60.249 95.5332C59.8753 95.5332 59.5632 95.5993 59.3125 95.7314C59.0618 95.8636 58.8613 96.0459 58.7109 96.2783C58.5605 96.5107 58.4512 96.7773 58.3828 97.0781C58.319 97.3743 58.2871 97.6888 58.2871 98.0215ZM63.0791 97.3242L62.2314 97.584C62.236 97.1784 62.3021 96.7887 62.4297 96.415C62.5618 96.0413 62.751 95.7087 62.9971 95.417C63.2477 95.1253 63.5553 94.8952 63.9199 94.7266C64.2845 94.5534 64.7015 94.4668 65.1709 94.4668C65.5674 94.4668 65.9183 94.5192 66.2236 94.624C66.5335 94.7288 66.7933 94.8906 67.0029 95.1094C67.2171 95.3236 67.3789 95.5993 67.4883 95.9365C67.5977 96.2738 67.6523 96.6748 67.6523 97.1396V102H66.3809V97.126C66.3809 96.7113 66.3148 96.39 66.1826 96.1621C66.055 95.9297 65.8727 95.7679 65.6357 95.6768C65.4033 95.5811 65.1253 95.5332 64.8018 95.5332C64.5238 95.5332 64.2777 95.5811 64.0635 95.6768C63.8493 95.7725 63.6693 95.9046 63.5234 96.0732C63.3776 96.2373 63.266 96.4264 63.1885 96.6406C63.1156 96.8548 63.0791 97.0827 63.0791 97.3242Z" fill="#736C5D"/>
</svg>
