<svg width="19" height="19" viewBox="0 0 19 19" fill="none" xmlns="http://www.w3.org/2000/svg">
<mask id="path-1-inside-1_1865_348" fill="white">
<path d="M18.92 9.41546C18.9161 1.1142 8.854 -3.12273 2.76688 2.76163C0.981668 4.53968 0 6.90593 0 9.42021C0.0031662 16.5839 7.72667 21.0725 13.9848 17.6922L19 19L17.6573 14.1218C18.4854 12.6929 18.92 11.0748 18.92 9.41546Z"/>
</mask>
<path d="M18.92 9.41546C18.9161 1.1142 8.854 -3.12273 2.76688 2.76163C0.981668 4.53968 0 6.90593 0 9.42021C0.0031662 16.5839 7.72667 21.0725 13.9848 17.6922L19 19L17.6573 14.1218C18.4854 12.6929 18.92 11.0748 18.92 9.41546Z" stroke="black" stroke-width="3" stroke-miterlimit="1.41421" stroke-linejoin="round" mask="url(#path-1-inside-1_1865_348)"/>
<path d="M6 13H13M5.00007 9.5H13.9849M6 6H13" stroke="black" stroke-linecap="round"/>
</svg>
