<svg width="75" height="107" viewBox="0 0 75 107" fill="none" xmlns="http://www.w3.org/2000/svg">
<g id="Editar">
<g id="Group 49">
<rect id="Rectangle 28" width="75" height="75" rx="37.5" fill="#F3F3F3"/>
<g id="Whatsapp">
<path id="Vector" d="M45.1152 39.8026L45.1038 39.8973C42.3196 38.5126 42.0284 38.3282 41.6688 38.8664C41.4194 39.2391 40.6926 40.0843 40.4736 40.3345C40.252 40.5808 40.0317 40.5998 39.6557 40.4292C39.2758 40.2397 38.0566 39.8417 36.6132 38.5531C35.4889 37.5486 34.7343 36.3168 34.5114 35.9378C34.1405 35.2985 34.9166 35.2075 35.6231 33.8734C35.7497 33.608 35.6851 33.3996 35.5914 33.2113C35.4965 33.0218 34.7406 31.1646 34.4241 30.4242C34.1202 29.6864 33.8075 29.7799 33.5732 29.7799C32.844 29.7167 32.3109 29.7268 31.8412 30.2145C29.7977 32.4558 30.313 34.7679 32.0615 37.2265C35.4977 41.7141 37.3286 42.5404 40.6762 43.6876C41.5802 43.9744 42.4044 43.934 43.0565 43.8405C43.7832 43.7255 45.2937 42.9295 45.609 42.0388C45.9318 41.1481 45.9318 40.409 45.8369 40.2385C45.7432 40.0679 45.495 39.9731 45.1152 39.8026V39.8026Z" fill="black"/>
<g id="Vector_2">
<mask id="path-3-inside-1_1867_583" fill="white">
<path d="M23.128 36.8665C23.1343 23.7593 39.2579 17.0206 49.0005 26.3117L48.9814 26.3605C51.8387 29.1679 53.4099 32.9041 53.4099 36.874C53.4048 48.1851 41.0432 55.2724 31.0269 49.935L23 52L25.149 44.2976C23.8236 42.0414 23.128 39.4865 23.128 36.8665Z"/>
</mask>
<path d="M23.128 36.8665C23.1343 23.7593 39.2579 17.0206 49.0005 26.3117L48.9814 26.3605C51.8387 29.1679 53.4099 32.9041 53.4099 36.874C53.4048 48.1851 41.0432 55.2724 31.0269 49.935L23 52L25.149 44.2976C23.8236 42.0414 23.128 39.4865 23.128 36.8665Z" stroke="black" stroke-width="4.02775" mask="url(#path-3-inside-1_1867_583)"/>
</g>
</g>
</g>
<path id="Nombre" opacity="0.8" d="M6.82617 98.9922L8.80176 92.0469H9.75879L9.20508 94.7471L7.0791 102H6.12891L6.82617 98.9922ZM4.78223 92.0469L6.35449 98.8555L6.82617 102H5.88281L3.46973 92.0469H4.78223ZM12.3154 98.8486L13.8535 92.0469H15.1729L12.7666 102H11.8232L12.3154 98.8486ZM9.90234 92.0469L11.8232 98.9922L12.5205 102H11.5703L9.51953 94.7471L8.95898 92.0469H9.90234ZM17.709 91.5V102H16.4443V91.5H17.709ZM17.4082 98.0215L16.8818 98.001C16.8864 97.4951 16.9616 97.028 17.1074 96.5996C17.2533 96.1667 17.4583 95.7907 17.7227 95.4717C17.987 95.1527 18.3014 94.9066 18.666 94.7334C19.0352 94.5557 19.443 94.4668 19.8896 94.4668C20.2542 94.4668 20.5824 94.5169 20.874 94.6172C21.1657 94.7129 21.4141 94.8678 21.6191 95.082C21.8288 95.2962 21.9883 95.5742 22.0977 95.916C22.207 96.2533 22.2617 96.6657 22.2617 97.1533V102H20.9902V97.1396C20.9902 96.7523 20.9333 96.4424 20.8193 96.21C20.7054 95.973 20.5391 95.8021 20.3203 95.6973C20.1016 95.5879 19.8327 95.5332 19.5137 95.5332C19.1992 95.5332 18.9121 95.5993 18.6523 95.7314C18.3971 95.8636 18.1761 96.0459 17.9893 96.2783C17.807 96.5107 17.6634 96.7773 17.5586 97.0781C17.4583 97.3743 17.4082 97.6888 17.4082 98.0215ZM28.5166 100.735V96.9277C28.5166 96.6361 28.4574 96.3831 28.3389 96.1689C28.2249 95.9502 28.0518 95.7816 27.8193 95.6631C27.5869 95.5446 27.2998 95.4854 26.958 95.4854C26.639 95.4854 26.3587 95.54 26.1172 95.6494C25.8802 95.7588 25.6934 95.9023 25.5566 96.0801C25.4245 96.2578 25.3584 96.4492 25.3584 96.6543H24.0938C24.0938 96.39 24.1621 96.1279 24.2988 95.8682C24.4355 95.6084 24.6315 95.3737 24.8867 95.1641C25.1465 94.9499 25.4564 94.7812 25.8164 94.6582C26.181 94.5306 26.5866 94.4668 27.0332 94.4668C27.571 94.4668 28.0449 94.5579 28.4551 94.7402C28.8698 94.9225 29.1934 95.1982 29.4258 95.5674C29.6628 95.932 29.7812 96.39 29.7812 96.9414V100.387C29.7812 100.633 29.8018 100.895 29.8428 101.173C29.8883 101.451 29.9544 101.69 30.041 101.891V102H28.7217C28.6579 101.854 28.6077 101.66 28.5713 101.419C28.5348 101.173 28.5166 100.945 28.5166 100.735ZM28.7354 97.5156L28.749 98.4043H27.4707C27.1107 98.4043 26.7894 98.4339 26.5068 98.4932C26.2243 98.5479 25.9873 98.6322 25.7959 98.7461C25.6045 98.86 25.4587 99.0036 25.3584 99.1768C25.2581 99.3454 25.208 99.5436 25.208 99.7715C25.208 100.004 25.2604 100.216 25.3652 100.407C25.4701 100.599 25.6273 100.751 25.8369 100.865C26.0511 100.975 26.3132 101.029 26.623 101.029C27.0104 101.029 27.3522 100.947 27.6484 100.783C27.9447 100.619 28.1794 100.419 28.3525 100.182C28.5303 99.9447 28.626 99.7145 28.6396 99.4912L29.1797 100.1C29.1478 100.291 29.0612 100.503 28.9199 100.735C28.7786 100.968 28.5895 101.191 28.3525 101.405C28.1201 101.615 27.8421 101.79 27.5186 101.932C27.1995 102.068 26.8395 102.137 26.4385 102.137C25.9372 102.137 25.4974 102.039 25.1191 101.843C24.7454 101.647 24.4538 101.385 24.2441 101.057C24.0391 100.724 23.9365 100.353 23.9365 99.9424C23.9365 99.5459 24.014 99.1973 24.1689 98.8965C24.3239 98.5911 24.5472 98.3382 24.8389 98.1377C25.1305 97.9326 25.4814 97.7777 25.8916 97.6729C26.3018 97.568 26.7598 97.5156 27.2656 97.5156H28.7354ZM34.8672 94.6035V95.5742H30.8682V94.6035H34.8672ZM32.2217 92.8057H33.4863V100.168C33.4863 100.419 33.5251 100.608 33.6025 100.735C33.68 100.863 33.7803 100.947 33.9033 100.988C34.0264 101.029 34.1585 101.05 34.2998 101.05C34.4046 101.05 34.514 101.041 34.6279 101.022C34.7464 101 34.8353 100.981 34.8945 100.968L34.9014 102C34.8011 102.032 34.6689 102.062 34.5049 102.089C34.3454 102.121 34.1517 102.137 33.9238 102.137C33.6139 102.137 33.3291 102.075 33.0693 101.952C32.8096 101.829 32.6022 101.624 32.4473 101.337C32.2969 101.045 32.2217 100.653 32.2217 100.161V92.8057ZM40.6572 100.038C40.6572 99.8558 40.6162 99.6872 40.5342 99.5322C40.4567 99.3727 40.2949 99.2292 40.0488 99.1016C39.8073 98.9694 39.4427 98.8555 38.9551 98.7598C38.5449 98.6732 38.1735 98.5706 37.8408 98.4521C37.5127 98.3337 37.2324 98.1901 37 98.0215C36.7721 97.8529 36.5967 97.6546 36.4736 97.4268C36.3506 97.1989 36.2891 96.9323 36.2891 96.627C36.2891 96.3353 36.3529 96.0596 36.4805 95.7998C36.6126 95.54 36.7972 95.3099 37.0342 95.1094C37.2757 94.9089 37.5651 94.7516 37.9023 94.6377C38.2396 94.5238 38.6156 94.4668 39.0303 94.4668C39.6227 94.4668 40.1286 94.5716 40.5479 94.7812C40.9671 94.9909 41.2884 95.2712 41.5117 95.6221C41.735 95.9684 41.8467 96.3535 41.8467 96.7773H40.582C40.582 96.5723 40.5205 96.374 40.3975 96.1826C40.279 95.9867 40.1035 95.8249 39.8711 95.6973C39.6432 95.5697 39.363 95.5059 39.0303 95.5059C38.6794 95.5059 38.3945 95.5605 38.1758 95.6699C37.9616 95.7747 37.8044 95.9092 37.7041 96.0732C37.6084 96.2373 37.5605 96.4105 37.5605 96.5928C37.5605 96.7295 37.5833 96.8525 37.6289 96.9619C37.679 97.0667 37.7656 97.1647 37.8887 97.2559C38.0117 97.3424 38.1849 97.4245 38.4082 97.502C38.6315 97.5794 38.9163 97.6569 39.2627 97.7344C39.8688 97.8711 40.3678 98.0352 40.7598 98.2266C41.1517 98.418 41.4434 98.6527 41.6348 98.9307C41.8262 99.2087 41.9219 99.5459 41.9219 99.9424C41.9219 100.266 41.8535 100.562 41.7168 100.831C41.5846 101.1 41.391 101.332 41.1357 101.528C40.8851 101.72 40.5843 101.87 40.2334 101.979C39.887 102.084 39.4974 102.137 39.0645 102.137C38.4128 102.137 37.8613 102.021 37.4102 101.788C36.959 101.556 36.6172 101.255 36.3848 100.886C36.1523 100.517 36.0361 100.127 36.0361 99.7168H37.3076C37.3258 100.063 37.4261 100.339 37.6084 100.544C37.7907 100.744 38.014 100.888 38.2783 100.975C38.5426 101.057 38.8047 101.098 39.0645 101.098C39.4108 101.098 39.7002 101.052 39.9326 100.961C40.1696 100.87 40.3496 100.744 40.4727 100.585C40.5957 100.425 40.6572 100.243 40.6572 100.038ZM50.9316 92.9287L47.6367 102H46.29L50.084 92.0469H50.9521L50.9316 92.9287ZM53.6934 102L50.3916 92.9287L50.3711 92.0469H51.2393L55.0469 102H53.6934ZM53.5225 98.3154V99.3955H47.9307V98.3154H53.5225ZM57.4531 96.0254V104.844H56.1816V94.6035H57.3438L57.4531 96.0254ZM62.4365 98.2402V98.3838C62.4365 98.9215 62.3727 99.4206 62.2451 99.8809C62.1175 100.337 61.9307 100.733 61.6846 101.07C61.443 101.408 61.1445 101.67 60.7891 101.856C60.4336 102.043 60.0257 102.137 59.5654 102.137C59.096 102.137 58.6813 102.059 58.3213 101.904C57.9613 101.749 57.6559 101.524 57.4053 101.228C57.1546 100.931 56.9541 100.576 56.8037 100.161C56.6579 99.7464 56.5576 99.2793 56.5029 98.7598V97.9941C56.5576 97.4473 56.6602 96.9574 56.8105 96.5244C56.9609 96.0915 57.1592 95.7223 57.4053 95.417C57.6559 95.1071 57.959 94.8724 58.3145 94.7129C58.6699 94.5488 59.0801 94.4668 59.5449 94.4668C60.0098 94.4668 60.4222 94.5579 60.7822 94.7402C61.1423 94.918 61.4453 95.1732 61.6914 95.5059C61.9375 95.8385 62.1221 96.2373 62.2451 96.7021C62.3727 97.1624 62.4365 97.6751 62.4365 98.2402ZM61.165 98.3838V98.2402C61.165 97.8711 61.1263 97.5247 61.0488 97.2012C60.9714 96.873 60.8506 96.5859 60.6865 96.3398C60.527 96.0892 60.3219 95.8932 60.0713 95.752C59.8206 95.6061 59.5221 95.5332 59.1758 95.5332C58.8568 95.5332 58.5788 95.5879 58.3418 95.6973C58.1094 95.8066 57.9111 95.9548 57.7471 96.1416C57.583 96.3239 57.4486 96.5335 57.3438 96.7705C57.2435 97.0029 57.1683 97.2445 57.1182 97.4951V99.2656C57.2093 99.5846 57.3369 99.8854 57.501 100.168C57.665 100.446 57.8838 100.672 58.1572 100.845C58.4307 101.013 58.7747 101.098 59.1895 101.098C59.5312 101.098 59.8252 101.027 60.0713 100.886C60.3219 100.74 60.527 100.542 60.6865 100.291C60.8506 100.04 60.9714 99.7533 61.0488 99.4297C61.1263 99.1016 61.165 98.7529 61.165 98.3838ZM65.3145 96.0254V104.844H64.043V94.6035H65.2051L65.3145 96.0254ZM70.2979 98.2402V98.3838C70.2979 98.9215 70.234 99.4206 70.1064 99.8809C69.9788 100.337 69.792 100.733 69.5459 101.07C69.3044 101.408 69.0059 101.67 68.6504 101.856C68.2949 102.043 67.887 102.137 67.4268 102.137C66.9574 102.137 66.5426 102.059 66.1826 101.904C65.8226 101.749 65.5173 101.524 65.2666 101.228C65.016 100.931 64.8154 100.576 64.665 100.161C64.5192 99.7464 64.4189 99.2793 64.3643 98.7598V97.9941C64.4189 97.4473 64.5215 96.9574 64.6719 96.5244C64.8223 96.0915 65.0205 95.7223 65.2666 95.417C65.5173 95.1071 65.8203 94.8724 66.1758 94.7129C66.5312 94.5488 66.9414 94.4668 67.4062 94.4668C67.8711 94.4668 68.2835 94.5579 68.6436 94.7402C69.0036 94.918 69.3066 95.1732 69.5527 95.5059C69.7988 95.8385 69.9834 96.2373 70.1064 96.7021C70.234 97.1624 70.2979 97.6751 70.2979 98.2402ZM69.0264 98.3838V98.2402C69.0264 97.8711 68.9876 97.5247 68.9102 97.2012C68.8327 96.873 68.7119 96.5859 68.5479 96.3398C68.3883 96.0892 68.1833 95.8932 67.9326 95.752C67.682 95.6061 67.3835 95.5332 67.0371 95.5332C66.7181 95.5332 66.4401 95.5879 66.2031 95.6973C65.9707 95.8066 65.7725 95.9548 65.6084 96.1416C65.4443 96.3239 65.3099 96.5335 65.2051 96.7705C65.1048 97.0029 65.0296 97.2445 64.9795 97.4951V99.2656C65.0706 99.5846 65.1982 99.8854 65.3623 100.168C65.5264 100.446 65.7451 100.672 66.0186 100.845C66.292 101.013 66.6361 101.098 67.0508 101.098C67.3926 101.098 67.6865 101.027 67.9326 100.886C68.1833 100.74 68.3883 100.542 68.5479 100.291C68.7119 100.04 68.8327 99.7533 68.9102 99.4297C68.9876 99.1016 69.0264 98.7529 69.0264 98.3838Z" fill="#736C5D"/>
</g>
</svg>
